<?xml version="1.0" standalone="no"?>
<!DOCTYPE svg PUBLIC "-//W3C//DTD SVG 20010904//EN"
 "http://www.w3.org/TR/2001/REC-SVG-20010904/DTD/svg10.dtd">
<svg version="1.0" xmlns="http://www.w3.org/2000/svg"
 width="512.000000pt" height="512.000000pt" viewBox="0 0 512.000000 512.000000"
 preserveAspectRatio="xMidYMid meet">
<metadata>
Created by potrace 1.14, written by Peter Selinger 2001-2017
</metadata>
<g transform="translate(0.000000,512.000000) scale(0.100000,-0.100000)"
fill="#000000" stroke="none">
<path d="M2369 5116 c-2 -2 -36 -6 -74 -10 -39 -4 -81 -8 -95 -11 -31 -5 -135
-23 -174 -31 -95 -17 -327 -89 -436 -134 -663 -276 -1180 -809 -1429 -1477
-38 -102 -93 -287 -105 -350 -2 -15 -9 -53 -15 -83 -29 -159 -36 -244 -35
-470 0 -113 4 -234 8 -270 5 -36 10 -72 11 -80 8 -66 32 -184 57 -280 214
-831 831 -1499 1645 -1781 135 -46 296 -87 418 -105 22 -3 51 -8 65 -10 81
-13 176 -19 345 -19 239 0 376 14 565 57 590 134 1112 469 1481 953 68 89 159
230 203 315 22 41 47 89 56 105 94 172 207 539 236 770 3 28 8 61 10 75 9 49
12 457 4 525 -18 144 -22 171 -40 261 -140 679 -529 1252 -1112 1637 -113 74
-318 184 -428 227 -142 57 -380 128 -490 146 -14 2 -38 6 -55 9 -16 3 -50 8
-75 11 -25 3 -56 8 -70 11 -28 5 -466 14 -471 9z m466 -371 c413 -63 780 -216
1075 -449 201 -158 380 -356 514 -566 166 -262 291 -624 324 -935 9 -91 9
-391 -1 -477 -8 -75 -43 -266 -57 -313 -110 -368 -242 -618 -463 -880 -54 -64
-212 -219 -257 -254 -19 -14 -44 -34 -55 -44 -53 -49 -274 -186 -393 -244 -73
-36 -138 -66 -145 -67 -6 -1 -16 -4 -22 -7 -17 -10 -196 -67 -265 -84 -78 -20
-203 -43 -285 -52 -82 -10 -415 -10 -493 0 -599 73 -1132 376 -1499 850 -239
310 -396 701 -441 1102 -9 81 -9 406 1 480 9 77 37 237 42 245 2 4 7 22 10 41
13 76 100 312 159 434 105 213 239 405 402 570 74 75 174 165 219 197 5 4 24
18 40 31 181 142 485 291 725 356 114 31 264 60 343 67 40 3 74 8 76 10 6 5
401 -4 446 -11z"/>
<path d="M1603 3622 c-13 -2 -24 -10 -24 -18 -1 -8 -2 -17 -3 -21 -3 -9 -20
-113 -22 -128 -1 -11 -17 -107 -19 -115 -1 -3 -5 -27 -9 -55 -9 -58 -8 -54
-42 -245 -13 -80 -27 -158 -30 -175 -2 -16 -6 -41 -9 -55 -3 -14 -7 -40 -10
-57 -11 -68 -16 -100 -31 -178 -8 -44 -16 -98 -19 -120 -3 -22 -9 -62 -15 -90
-5 -27 -12 -66 -15 -85 -3 -19 -10 -62 -16 -95 -6 -33 -13 -73 -16 -90 -2 -16
-10 -66 -18 -110 -8 -44 -16 -98 -20 -120 -6 -44 -53 -314 -61 -357 l-6 -28
276 0 c311 0 280 -10 291 90 3 30 8 62 10 70 2 8 7 35 10 60 3 25 8 56 10 70
2 14 7 43 10 65 3 23 7 50 9 60 2 11 7 43 10 70 4 28 9 61 11 75 5 27 50 338
60 405 3 23 7 50 9 61 2 12 7 43 11 70 3 27 8 58 10 69 2 11 4 29 4 39 1 11 4
16 8 12 4 -4 116 -278 249 -609 l241 -602 113 0 113 0 44 105 c23 58 48 115
53 128 6 12 14 32 19 45 5 12 19 44 31 71 12 27 30 72 41 100 11 28 26 65 33
81 8 17 55 129 106 250 51 121 100 238 110 260 9 22 25 63 35 90 10 28 25 59
32 70 13 19 13 19 14 0 0 -11 2 -31 4 -45 2 -14 8 -61 14 -105 12 -82 17 -126
26 -192 2 -21 7 -54 10 -73 2 -19 7 -60 10 -90 3 -30 8 -64 10 -75 2 -11 7
-47 10 -80 4 -32 8 -62 10 -65 1 -3 6 -39 9 -80 4 -41 8 -82 11 -90 2 -8 6
-40 10 -71 3 -31 8 -67 10 -79 2 -12 7 -49 10 -83 4 -34 9 -65 11 -69 3 -5
129 -8 280 -8 l275 0 -6 33 c-11 68 -34 224 -40 267 -3 25 -10 70 -15 100 -5
30 -12 78 -15 105 -4 28 -8 57 -10 65 -2 8 -7 35 -10 60 -3 25 -12 86 -20 135
-8 50 -16 110 -20 135 -3 25 -10 71 -16 102 -5 32 -12 79 -14 105 -3 27 -7 57
-10 69 -4 20 -7 34 -20 132 -3 20 -10 64 -15 97 -5 33 -12 78 -15 100 -5 40
-12 83 -39 255 -9 52 -18 115 -21 140 -3 25 -7 54 -9 65 -2 11 -8 45 -12 75
-4 30 -9 58 -10 63 -1 4 -2 14 -3 22 -1 13 -39 15 -279 15 l-278 0 -52 -127
c-28 -71 -130 -324 -226 -563 -96 -239 -178 -433 -183 -431 -7 4 -43 93 -122
306 -11 28 -30 79 -44 115 -13 36 -39 103 -57 150 -17 47 -42 112 -55 145 -12
33 -50 134 -85 225 -34 91 -65 168 -68 172 -7 7 -487 16 -529 10z"/>
</g>
</svg>
