<?xml version="1.0" standalone="no"?>
<!DOCTYPE svg PUBLIC "-//W3C//DTD SVG 1.1//EN" "http://www.w3.org/Graphics/SVG/1.1/DTD/svg11.dtd" >
<svg>
<metadata>
Created by FontForge 20090914 at Mon Aug 26 21:12:19 2013
 By www-data
Copyright URW Software, Copyright 1992 by URW
</metadata>
<defs>
<font id="FuturaT-Light" horiz-adv-x="547" >
  <font-face 
    font-family="FuturaT-Light"
    font-weight="200"
    font-stretch="normal"
    units-per-em="1000"
    panose-1="2 0 3 3 0 0 0 0 0 0"
    ascent="800"
    descent="-200"
    x-height="408"
    cap-height="667"
    bbox="-147 -239.001 1018 916.001"
    underline-thickness="41"
    underline-position="-96"
    unicode-range="U+0020-U+FFFD"
  />
<missing-glyph horiz-adv-x="250" 
 />
    <glyph glyph-name=".notdef" unicode="&#xfffd;" horiz-adv-x="250" 
 />
    <glyph glyph-name="space" unicode=" " horiz-adv-x="250" 
 />
    <glyph glyph-name="exclam" unicode="!" horiz-adv-x="259" 
d="M130 66c10 0 18.5 -3.5 25.5 -10.5s10.5 -15.5 10.5 -25.5c0 -10.667 -3.5 -19.5 -10.5 -26.5s-15.5 -10.5 -25.5 -10.5s-18.667 3.66699 -26 11s-11 16 -11 26s3.5 18.5 10.5 25.5s15.833 10.5 26.5 10.5zM108 119v548h43v-548h-43z" />
    <glyph glyph-name="quotedbl" unicode="&#x22;" horiz-adv-x="360" 
d="M112 439l-7 228h46l-8 -228h-31zM216 439l-7 228h45l-7 -228h-31z" />
    <glyph glyph-name="numbersign" unicode="#" horiz-adv-x="600" 
d="M555 460v-40h-119l-20 -160h114v-40h-119l-28 -223l-42 6l27 217h-162l-28 -223l-42 6l27 217h-118v40h123l20 160h-118v40h123l25 210l43 -6l-25 -204h160l26 210l43 -6l-25 -204h115zM391 420h-160l-20 -160h161z" />
    <glyph glyph-name="dollar" unicode="$" 
d="M307 765v-93.998c60.667 -10.667 105.667 -41.667 135 -93l-32 -26c-16 24.667 -31.833 43 -47.5 55s-34.167 19.667 -55.5 23v-264c54.667 -26.667 91 -46.667 109 -60c39.333 -30.667 59 -71.334 59 -122.001c0 -45.333 -15.833 -86 -47.5 -122
s-71.834 -58.333 -120.501 -67v-102h-39v99c-48.667 2 -88.5 14.333 -119.5 37s-56.167 57.667 -75.5 105l37 17c12.667 -27.333 24 -47.333 34 -60s23 -24.334 39 -35.001c26 -16 54.333 -24 85 -24v306c-7.33301 3.33301 -12.666 6 -15.999 8
c-56 27.333 -93.333 52 -112 74s-28 52.333 -28 91c0 44 14.5 81 43.5 111s66.5 46.667 112.5 50v93h39zM307 319.002v-282.999c37.333 9.33301 67.333 27.833 90 55.5s34 59.834 34 96.501c0 27.333 -9.16699 50.666 -27.5 69.999s-50.5 39.666 -96.5 60.999zM268 384.003
v248.001c-32 -2.66699 -58.667 -15.834 -80 -39.501s-32 -52.167 -32 -85.5c0 -26.667 7.5 -48.167 22.5 -64.5s44.833 -35.833 89.5 -58.5z" />
    <glyph glyph-name="percent" unicode="%" horiz-adv-x="605" 
d="M168 673c38 0 69.832 -12.667 95.499 -38s38.5 -56.666 38.5 -93.999c0 -36.667 -13 -67.5 -39 -92.5s-57.667 -37.5 -95 -37.5c-38 0 -70 12.5 -96 37.5s-39 55.833 -39 92.5c0 37.333 12.833 68.666 38.5 93.999s57.834 38 96.501 38zM166.999 637
c-26 0 -48.167 -9.16699 -66.5 -27.5s-27.5 -40.5 -27.5 -66.5c0 -26.667 9.16699 -49.167 27.5 -67.5s40.833 -27.5 67.5 -27.5c26 0 48.167 9.16699 66.5 27.5s27.5 40.833 27.5 67.5c0 26 -9.16699 48.167 -27.5 66.5s-40.833 27.5 -67.5 27.5zM483.999 682l29 -15
l-396 -682l-28 16zM436.999 256c38 0 69.832 -12.667 95.499 -38s38.5 -56.666 38.5 -93.999c0 -36.667 -13 -67.5 -39 -92.5s-57.667 -37.5 -95 -37.5c-38 0 -70 12.5 -96 37.5s-39 55.833 -39 92.5c0 37.333 12.833 68.666 38.5 93.999s57.834 38 96.501 38zM435.998 219
c-26.667 0 -49.167 -9.16699 -67.5 -27.5s-27.5 -40.5 -27.5 -66.5c0 -26.667 9.33301 -49.167 28 -67.5s41 -27.5 67 -27.5c26.667 0 49.167 9.16699 67.5 27.5s27.5 40.833 27.5 67.5c0 26 -9.16699 48.167 -27.5 66.5s-40.833 27.5 -67.5 27.5z" />
    <glyph glyph-name="ampersand" unicode="&#x26;" horiz-adv-x="629" 
d="M323 390l163.001 -220c22.667 22 48.667 51.667 78 89l39 -18c-34.667 -45.333 -65.334 -80.666 -92.001 -105.999l101 -136h-56l-79 106c-50.667 -42.667 -94.667 -73 -132 -91s-73.666 -27 -108.999 -27c-48.667 0 -89.667 16.833 -123 50.5s-50 75.167 -50 124.5
c0 43.333 15.667 83.833 47 121.5s82 77.167 152 118.5c-8.66699 12.667 -19.334 29.667 -32.001 51c-14.667 24 -24.167 42.167 -28.5 54.5s-6.5 26.833 -6.5 43.5c0 34.667 12.833 64.667 38.5 90s56.167 38 91.5 38c34 0 62.667 -12 86 -36s35 -53.333 35 -88
c0 -30 -8.5 -56.333 -25.5 -79s-49.5 -51.334 -97.5 -86.001zM453.001 140l-167 228c-2.66699 -2 -23.667 -15.333 -63 -40c-77.333 -49.333 -116 -104 -116 -164c0 -38.667 12.667 -71.167 38 -97.5s56.333 -39.5 93 -39.5c56 0 127.667 37.667 215 113zM298.001 424
l14 9.99902c37.333 27.333 61.833 48.833 73.5 64.5s17.5 34.834 17.5 57.501c0 23.333 -7.66699 42.833 -23 58.5s-34.333 23.5 -57 23.5c-23.333 0 -43.333 -9 -60 -27s-25 -39.667 -25 -65c0 -20.667 10 -46 30 -76c16 -24 26 -39.333 30 -46z" />
    <glyph glyph-name="quotesingle" unicode="'" horiz-adv-x="245" 
d="M104 439l-7 228h46l-8 -228h-31z" />
    <glyph glyph-name="parenleft" unicode="(" horiz-adv-x="269" 
d="M157 743l33 -23.001c-41.333 -143.333 -62 -288.333 -62 -435c0 -147.333 20.667 -292.666 62 -435.999l-33 -23c-20.667 50 -37.5 118 -50.5 204s-19.5 171 -19.5 255c0 83.333 6.5 168 19.5 254s29.833 154 50.5 204z" />
    <glyph glyph-name="parenright" unicode=")" horiz-adv-x="269" 
d="M113 -174l-33 23.001c41.333 144 62 289.333 62 436c0 146 -20.667 291 -62 435l33 23c20.667 -50 37.5 -118 50.5 -204s19.5 -170.667 19.5 -254c0 -84 -6.5 -168.833 -19.5 -254.5s-29.833 -153.834 -50.5 -204.501z" />
    <glyph glyph-name="asterisk" unicode="*" 
d="M255 596l-3 133h43l-3 -133l125 44l14 -41l-128 -38l81 -106l-35 -25l-76 110l-75 -110l-35 25l81 106l-128 38l13 41z" />
    <glyph glyph-name="plus" unicode="+" 
d="M31 320v40h222v219h40v-219h222v-40h-222v-219h-40v219h-222z" />
    <glyph glyph-name="comma" unicode="," horiz-adv-x="203" 
d="M98 65l40 -12l-74 -200l-26 10z" />
    <glyph glyph-name="hyphen" unicode="-" horiz-adv-x="168" 
d="M0 227h168v-40h-168v40z" />
    <glyph glyph-name="period" unicode="." horiz-adv-x="203" 
d="M102 66c10 0 18.5 -3.5 25.5 -10.5s10.5 -15.5 10.5 -25.5c0 -10.667 -3.5 -19.5 -10.5 -26.5s-15.5 -10.5 -25.5 -10.5s-18.667 3.66699 -26 11s-11 16 -11 26s3.5 18.5 10.5 25.5s15.833 10.5 26.5 10.5z" />
    <glyph glyph-name="slash" unicode="/" horiz-adv-x="544" 
d="M514 743l31 -16l-506 -901l-32 16z" />
    <glyph glyph-name="zero" unicode="0" 
d="M273 675c68 0 125.334 -32.8301 172.001 -98.4971s70 -146.834 70 -243.501c0 -94 -23.833 -174.5 -71.5 -241.5s-104.834 -100.5 -171.501 -100.5c-66 0 -122.667 33.667 -170 101s-71 147.666 -71 240.999s23.833 173.666 71.5 240.999s104.5 101 170.5 101z
M274.001 634.003c-56 0 -103.166 -29.501 -141.499 -88.501s-57.5 -131.5 -57.5 -217.5c0 -82.667 19.333 -152.667 58 -210s86 -86 142 -86c54 0 100.333 29.667 139 89s58 130.333 58 213s-19.333 153.334 -58 212.001s-85.334 88 -140.001 88z" />
    <glyph glyph-name="one" unicode="1" 
d="M272 627h-104l19 40h128v-667h-43v627z" />
    <glyph glyph-name="two" unicode="2" 
d="M155 40h315.998v-40h-410l255 282c42 46 71.5 84 88.5 114s25.5 59 25.5 87c0 42 -15.167 77.667 -45.5 107s-67.166 44 -110.499 44c-28 0 -54 -6.5 -78 -19.5s-42.667 -30.167 -56 -51.5c-12 -20 -19 -48.333 -21 -85h-44c0.666992 28 3.16699 49.833 7.5 65.5
s11.833 31.167 22.5 46.5c17.333 25.333 41.833 45.833 73.5 61.5s63.834 23.5 96.501 23.5c56 0 103.167 -18.667 141.5 -56s57.5 -83.333 57.5 -138c0 -46 -19.333 -95 -58 -147c-16.667 -21.333 -45.667 -54.333 -87 -99z" />
    <glyph glyph-name="three" unicode="3" 
d="M262 326l0.00195312 39.9961c43.333 2.66699 77.666 16.334 102.999 41.001s38 56.334 38 95.001c0 38 -12.333 69.5 -37 94.5s-55.667 37.5 -93 37.5c-76.667 0 -120.334 -42 -131.001 -126h-41c13.333 111.333 70.666 167 171.999 167
c48.667 0 89.834 -16.667 123.501 -50s50.5 -74.333 50.5 -123c0 -69.333 -33.667 -120.666 -101 -153.999c73.333 -29.333 110 -85 110 -167c0 -52.667 -19 -97.5 -57 -134.5s-84 -55.5 -138 -55.5c-53.333 0 -97.333 16.167 -132 48.5s-52.334 73.833 -53.001 124.5h42
c4 -31.333 11.333 -55 22 -71c11.333 -17.333 28.5 -31.833 51.5 -43.5s45.833 -17.5 68.5 -17.5c41.333 0 77 15 107 45s45 66.333 45 109c0 41.333 -13.167 74.333 -39.5 99s-63.166 38.334 -110.499 41.001z" />
    <glyph glyph-name="four" unicode="4" 
d="M412 167h94v-40h-94v-127h-43v127h-359l402 562v-522zM369 167v392l-279 -392h279z" />
    <glyph glyph-name="five" unicode="5" 
d="M469 627l-223 0.00195312l-55 -180c16.667 4 33 6 49 6c64.667 0 118.834 -21.833 162.501 -65.5s65.5 -97.834 65.5 -162.501c0 -66.667 -22.833 -122.334 -68.5 -167.001s-102.5 -67 -170.5 -67c-86 0 -152.333 36.667 -199 110l39 16c39.333 -56.667 93 -85 161 -85
c54.667 0 100.667 18.667 138 56s56 83.333 56 138c0 52 -18.667 96 -56 132s-83.333 54 -138 54c-32.667 0 -66.334 -9.33301 -101.001 -28l87 283h253v-40z" />
    <glyph glyph-name="six" unicode="6" 
d="M300 675l33.999 -24.999l-147 -210c32 12 61.667 18 89 18c64 0 118.833 -22.833 164.5 -68.5s68.5 -100.834 68.5 -165.501c0 -64 -23.167 -118.833 -69.5 -164.5s-102.166 -68.5 -167.499 -68.5s-121 22.667 -167 68s-69 100 -69 164c0 52.667 14.333 99 43 139z
M272.999 417.001c-53.333 0 -98.833 -18.8311 -136.5 -56.498s-56.5 -83.167 -56.5 -136.5c0 -52.667 18.833 -97.834 56.5 -135.501s83.167 -56.5 136.5 -56.5s98.833 18.667 136.5 56s56.5 82.666 56.5 135.999s-18.833 98.833 -56.5 136.5s-83.167 56.5 -136.5 56.5z" />
    <glyph glyph-name="seven" unicode="7" 
d="M466 627h-405v40h483l-476 -674l-33 25z" />
    <glyph glyph-name="eight" unicode="8" 
d="M188 347c-61.333 34.667 -91.999 85.333 -91.999 152c0 50 17 91.833 51 125.5s76.333 50.5 127 50.5s93.167 -16.667 127.5 -50s51.5 -74.333 51.5 -123c0 -32 -8.5 -61.833 -25.5 -89.5s-40.5 -49.5 -70.5 -65.5c72.667 -35.333 109 -90.333 109 -165
c0 -54 -18.667 -99.333 -56 -136s-83.333 -55 -138 -55s-100.334 18 -137.001 54s-55 81 -55 135c0 74 36 129.667 108 167zM274.001 633.999c-37.333 0 -69 -13 -95 -39s-39 -57.667 -39 -95s13 -69.166 39 -95.499s57.667 -39.5 95 -39.5s69 13.167 95 39.5
s39 58.166 39 95.499s-13 69 -39 95s-57.667 39 -95 39zM272.001 326.999c-41.333 0 -76.5 -14.333 -105.5 -43s-43.5 -63.334 -43.5 -104.001s14.5 -75.5 43.5 -104.5s64.167 -43.5 105.5 -43.5s76.5 14.5 105.5 43.5s43.5 63.833 43.5 104.5s-14.5 75.334 -43.5 104.001
s-64.167 43 -105.5 43z" />
    <glyph glyph-name="nine" unicode="9" 
d="M247 -8l-33.999 26l147 209c-32 -11.333 -61.667 -17 -89 -17c-64 0 -118.833 22.833 -164.5 68.5s-68.5 100.5 -68.5 164.5s23.167 118.667 69.5 164s102.166 68 167.499 68s121 -22.5 167 -67.5s69 -99.833 69 -164.5c0 -51.333 -14.333 -97.333 -43 -138zM275.001 634
c-53.333 0 -99 -18.833 -137 -56.5s-57 -82.834 -57 -135.501s19 -97.834 57 -135.501s83.667 -56.5 137 -56.5s98.833 18.833 136.5 56.5s56.5 82.834 56.5 135.501s-18.833 97.834 -56.5 135.501s-83.167 56.5 -136.5 56.5z" />
    <glyph glyph-name="colon" unicode=":" horiz-adv-x="203" 
d="M102 66c10 0 18.5 -3.5 25.5 -10.5s10.5 -15.5 10.5 -25.5c0 -10.667 -3.5 -19.5 -10.5 -26.5s-15.5 -10.5 -25.5 -10.5s-18.667 3.66699 -26 11s-11 16 -11 26s3.5 18.5 10.5 25.5s15.833 10.5 26.5 10.5zM102 417c10 0 18.5 -3.5 25.5 -10.5s10.5 -15.5 10.5 -25.5
c0 -10.667 -3.5 -19.5 -10.5 -26.5s-15.5 -10.5 -25.5 -10.5s-18.667 3.66699 -26 11s-11 16 -11 26s3.5 18.5 10.5 25.5s15.833 10.5 26.5 10.5z" />
    <glyph glyph-name="semicolon" unicode=";" horiz-adv-x="203" 
d="M98 65l40 -12l-74 -200l-26 10zM106 417c10 0 18.5 -3.5 25.5 -10.5s10.5 -15.5 10.5 -25.5c0 -10.667 -3.5 -19.5 -10.5 -26.5s-15.5 -10.5 -25.5 -10.5c-10.667 0 -19.5 3.5 -26.5 10.5s-10.5 15.833 -10.5 26.5c0 10 3.5 18.5 10.5 25.5s15.833 10.5 26.5 10.5z" />
    <glyph glyph-name="less" unicode="&#x3c;" horiz-adv-x="500" 
d="M466 548v-44l-386 -169l386 -170v-44l-433 194v40z" />
    <glyph glyph-name="equal" unicode="=" 
d="M31 373v40h484v-40h-484zM31 267v40h484v-40h-484z" />
    <glyph glyph-name="greater" unicode="&#x3e;" horiz-adv-x="500" 
d="M34 121v44l386 170l-386 169v44l433 -193v-40z" />
    <glyph glyph-name="question" unicode="?" horiz-adv-x="465" 
d="M328 257h40.998v-10c0 -40 -12.667 -72.667 -38 -98s-58.333 -38 -99 -38c-40 0 -73.167 13 -99.5 39s-39.5 58.667 -39.5 98c0 67.333 42 112.333 126 135c34 9.33301 55.833 15.833 65.5 19.5s18.834 9.5 27.501 17.5c24 19.333 36 48.333 36 87
c0 36.667 -11.167 66.834 -33.5 90.501s-50.833 35.5 -85.5 35.5c-31.333 0 -58.333 -11.167 -81 -33.5s-34 -48.833 -34 -79.5c0 -14.667 2 -31.667 6 -51h-41c-4 21.333 -6 39.666 -6 54.999c0 42.667 15.167 78.167 45.5 106.5s68.166 42.5 113.499 42.5
c46.667 0 84.834 -15.167 114.501 -45.5s44.5 -69.5 44.5 -117.5c0 -27.333 -6.16699 -53.166 -18.5 -77.499s-28.166 -42.5 -47.499 -54.5c-16 -10 -35.667 -18 -59 -24l-17 -4l-16 -5l-16 -4c-54 -14 -81 -44.667 -81 -92c0 -28.667 9.16699 -52.334 27.5 -71.001
s41.833 -28 70.5 -28c56.667 0 88 35.667 94 107zM230.998 66c10 0 18.5 -3.5 25.5 -10.5s10.5 -15.5 10.5 -25.5c0 -10.667 -3.5 -19.5 -10.5 -26.5s-15.5 -10.5 -25.5 -10.5s-18.667 3.66699 -26 11s-11 16 -11 26s3.5 18.5 10.5 25.5s15.833 10.5 26.5 10.5z" />
    <glyph glyph-name="at" unicode="@" horiz-adv-x="768" 
d="M565 504l-26.999 -223.997l-8 -52c0 -10.667 3.5 -19.167 10.5 -25.5s16.167 -9.5 27.5 -9.5c30 0 56.333 18.667 79 56s34 80.666 34 129.999c0 76 -26.667 138.5 -80 187.5s-121.333 73.5 -204 73.5c-86 0 -158.667 -29.833 -218 -89.5s-89 -132.5 -89 -218.5
c0 -55.333 13.5 -106.833 40.5 -154.5s63.833 -84.834 110.5 -111.501s104.334 -40 173.001 -40c72 0 145 18.333 219 55l14 -34c-74.667 -37.333 -152.334 -56 -233.001 -56c-106.667 0 -193.667 31.833 -261 95.5s-101 145.834 -101 246.501c0 96.667 33.5 178 100.5 244
s149.167 99 246.5 99c91.333 0 167.166 -28.333 227.499 -85s90.5 -127.334 90.5 -212.001c0 -59.333 -15.667 -111 -47 -155s-68.333 -66 -111 -66c-18.667 0 -34.5 5.83301 -47.5 17.5s-19.5 25.5 -19.5 41.5v10c-22 -26.667 -42.667 -45.167 -62 -55.5
s-42.333 -15.5 -69 -15.5c-46 0 -83.667 15.667 -113 47s-44 71.333 -44 120c0 54 17 99 51 135s76.667 54 128 54c29.333 0 54 -5.83301 74 -17.5s39.667 -31.834 59 -60.501l9 70h40zM385.001 475.003c-39.333 0 -72.501 -14.667 -99.501 -44s-40.5 -65.333 -40.5 -108
c0 -37.333 11.333 -68.333 34 -93s51.334 -37 86.001 -37c38.667 0 72.167 15.833 100.5 47.5s42.5 69.167 42.5 112.5c0 35.333 -11.5 64.5 -34.5 87.5s-52.5 34.5 -88.5 34.5z" />
    <glyph glyph-name="A" unicode="A" horiz-adv-x="584" 
d="M434 219h-284l-89 -219h-48l280 687l278 -687h-49zM418 259l-125 316l-127 -316h252z" />
    <glyph glyph-name="B" unicode="B" horiz-adv-x="533" 
d="M90 0l-0.000976562 667.002h144c57.333 0 102.333 -15.333 135 -46s49 -72.334 49 -125.001c0 -34.667 -5.66699 -62.334 -17 -83.001s-31.666 -40.334 -60.999 -59.001c92.667 -25.333 139 -81.666 139 -168.999c0 -54.667 -19.333 -99.167 -58 -133.5
s-88.667 -51.5 -150 -51.5h-181zM132.999 365.002h84.999c30.667 0 53.334 1.83301 68.001 5.5s29 11.167 43 22.5c29.333 22.667 44 57 44 103c0 87.333 -51.667 131 -155 131h-85v-262zM132.998 40.002l112 0.000976562c39.333 0 68.833 2.66699 88.5 8s38.167 16 55.5 32
c30.667 27.333 46 62.333 46 105c0 26.667 -6.66699 51.167 -20 73.5s-31 38.166 -53 47.499c-29.333 12.667 -71 19 -125 19h-104v-285z" />
    <glyph glyph-name="C" unicode="C" horiz-adv-x="677" 
d="M623 590l0.00292969 -60c-62.667 70 -137.334 105 -224.001 105c-80.667 0 -151 -30 -211 -90s-90 -130.333 -90 -211c0 -82.667 29.667 -154 89 -214s129.666 -90 210.999 -90c86.667 0 161.667 33.333 225 100v-58c-70.667 -55.333 -144.667 -83 -222 -83
c-94 0 -175.5 34 -244.5 102s-103.5 148.333 -103.5 241c0 94 34.167 174.833 102.5 242.5s150.166 101.5 245.499 101.5c80.667 0 154.667 -28.667 222 -86z" />
    <glyph glyph-name="D" unicode="D" horiz-adv-x="617" 
d="M90 0v667h132c100.667 0 182 -30.667 244 -92c65.333 -64 98 -145 98 -243c0 -95.333 -32.667 -175 -98 -239c-62 -62 -143.333 -93 -244 -93h-132zM133 40l88 -0.000976562c86.667 0 158 27.5 214 82.5s84 125.167 84 210.5c0 86.667 -27.833 157.334 -83.5 212.001
s-127.167 82 -214.5 82h-88v-587z" />
    <glyph glyph-name="E" unicode="E" horiz-adv-x="463" 
d="M409 627h-276v-242h270v-40h-270v-305h276v-40h-319v667h319v-40z" />
    <glyph glyph-name="F" unicode="F" horiz-adv-x="406" 
d="M359 627h-226v-242h220v-40h-220v-345h-43v667h269v-40z" />
    <glyph glyph-name="G" unicode="G" horiz-adv-x="771" 
d="M437 320l281 -0.000976562c0 -44.667 -3 -80.167 -9 -106.5s-16.667 -52.166 -32 -77.499c-27.333 -44.667 -66.833 -80.334 -118.5 -107.001s-106.167 -40 -163.5 -40c-92.667 0 -172.834 33.833 -240.501 101.5s-101.5 147.834 -101.5 240.501
c0 94.667 34.167 175.834 102.5 243.501s150.166 101.5 245.499 101.5c58 0 109.833 -12.333 155.5 -37s90.167 -64.334 133.5 -119.001l-35 -27c-24.667 33.333 -46 57 -64 71c-53.333 47.333 -117.333 71 -192 71c-82 0 -152.833 -30.167 -212.5 -90.5
s-89.5 -131.833 -89.5 -214.5c0 -82 29.5 -152.5 88.5 -211.5s129.5 -88.5 211.5 -88.5c48.667 0 95.834 12 141.501 36s79.834 54.667 102.501 92c18 29.333 28 70 30 122h-234v40z" />
    <glyph glyph-name="H" unicode="H" horiz-adv-x="671" 
d="M133 384h405v283h43v-667h-43v344h-405v-344h-43v667h43v-283z" />
    <glyph glyph-name="I" unicode="I" horiz-adv-x="223" 
d="M133 667v-667h-43v667h43z" />
    <glyph glyph-name="J" unicode="J" horiz-adv-x="265" 
d="M175 667l0.000976562 -665c0 -94 -38.333 -141 -115 -141c-50.667 0 -88.334 24 -113.001 72l32 24c19.333 -36.667 47 -55 83 -55c46.667 0 70 33.333 70 100v665h43z" />
    <glyph glyph-name="K" unicode="K" horiz-adv-x="539" 
d="M133 357l313 310h59l-326 -322l347 -345h-64l-313 317l-16 -16v-301h-43v667h43v-310z" />
    <glyph glyph-name="L" unicode="L" horiz-adv-x="315" 
d="M133 667v-627h169v-40h-212v667h43z" />
    <glyph glyph-name="M" unicode="M" horiz-adv-x="897" 
d="M83 0l75 690l288 -617l291 617l76 -690h-44l-60 536l-263 -560l-261 560l-58 -536h-44z" />
    <glyph glyph-name="N" unicode="N" horiz-adv-x="783" 
d="M90 0v674l560 -586v579h43v-684l-560 586v-569h-43z" />
    <glyph glyph-name="O" unicode="O" horiz-adv-x="798" 
d="M399 676c94 0 175 -33.833 243 -101.5s102 -148.167 102 -241.5c0 -94 -34 -174.833 -102 -242.5s-149 -101.5 -243 -101.5c-94.667 0 -176 33.833 -244 101.5s-102 148.5 -102 242.5c0 93.333 34 173.833 102 241.5s149.333 101.5 244 101.5zM399 635
c-82.667 0 -153.5 -29.6689 -212.5 -89.002s-88.5 -130.666 -88.5 -213.999c0 -82.667 29.5 -153.667 88.5 -213s129.833 -89 212.5 -89c82 0 152.5 29.667 211.5 89s88.5 130.333 88.5 213s-29.5 153.834 -88.5 213.501s-129.5 89.5 -211.5 89.5z" />
    <glyph glyph-name="P" unicode="P" horiz-adv-x="445" 
d="M133 317v-317h-43v667h128c60.667 0 108.167 -15.667 142.5 -47s51.5 -74.333 51.5 -129c0 -54 -17.167 -96.5 -51.5 -127.5s-81.5 -46.5 -141.5 -46.5h-86zM133 357h86.999c44.667 0 80.334 12.333 107.001 37s40 57.667 40 99c0 43.333 -13 76.5 -39 99.5
s-64 34.5 -114 34.5h-81v-270z" />
    <glyph glyph-name="Q" unicode="Q" horiz-adv-x="798" 
d="M734 0l-57 0.000976562l-60 68c-69.333 -52.667 -142 -79 -218 -79c-95.333 0 -176.833 33.5 -244.5 100.5s-101.5 147.833 -101.5 242.5s34 175.667 102 243s149.667 101 245 101c93.333 0 174 -33.5 242 -100.5s102 -146.833 102 -239.5
c0 -46 -7.33301 -87.333 -22 -124s-39.667 -76.334 -75 -119.001zM481 273.001l135 -147.998c31.333 36.667 53 70.167 65 100.5s18 66.166 18 107.499c0 82.667 -29.5 153.667 -88.5 213s-129.5 89 -211.5 89s-152.667 -29.667 -212 -89s-89 -130.333 -89 -213
s29.333 -153.834 88 -213.501s128.667 -89.5 210 -89.5c66 0 129.667 23 191 69l-166 174h60z" />
    <glyph glyph-name="R" unicode="R" horiz-adv-x="467" 
d="M202 315l218 -315.001h-53l-214 315h-20v-315h-43v667h94c138.667 0 208 -59 208 -177c0 -35.333 -7.66699 -66.666 -23 -93.999s-37 -47.666 -65 -60.999c-22 -10.667 -56 -17.334 -102 -20.001zM133 354.999h64c48 0 85.167 11.833 111.5 35.5s39.5 57.167 39.5 100.5
c0 90.667 -53.333 136 -160 136h-55v-272z" />
    <glyph glyph-name="S" unicode="S" horiz-adv-x="512" 
d="M425 581l-32.0029 -26.002c-19.333 29.333 -38.833 50 -58.5 62s-43.834 18 -72.501 18c-35.333 0 -65 -12.167 -89 -36.5s-36 -54.166 -36 -89.499c0 -26.667 8.33301 -49 25 -67s47.667 -38 93 -60c64.667 -30.667 109 -53.667 133 -69c46.667 -30.667 70 -74 70 -130
c0 -52.667 -20.5 -98.167 -61.5 -136.5s-89.833 -57.5 -146.5 -57.5c-92 0 -157.667 47.667 -197 143l37 18c20.667 -43.333 43.334 -74.166 68.001 -92.499s55.334 -27.5 92.001 -27.5c44.667 0 83 15.333 115 46s48 67.667 48 111c0 42.667 -21.667 76.334 -65 101.001
l-67 35l-19 9l-19 10l-19 9c-51.333 25.333 -86.166 49.166 -104.499 71.499s-27.5 52.5 -27.5 90.5c0 46.667 16.333 85.5 49 116.5s73.334 46.5 122.001 46.5c71.333 0 125.333 -31.667 162 -95z" />
    <glyph glyph-name="T" unicode="T" horiz-adv-x="415" 
d="M227 627v-627h-43v627h-171v40h388v-40h-174z" />
    <glyph glyph-name="U" unicode="U" horiz-adv-x="633" 
d="M133 667l-0.00195312 -417c0 -41.333 1.66699 -71.833 5 -91.5s9.66602 -36.834 18.999 -51.501c14.667 -22.667 36.834 -41.167 66.501 -55.5s60.834 -21.5 93.501 -21.5c32 0 62.833 7.16699 92.5 21.5s51.834 32.833 66.501 55.5
c9.33301 14.667 15.666 31.834 18.999 51.501s5 50.167 5 91.5v417h43v-429c0 -44 -2.33301 -76.667 -7 -98s-14 -41.333 -28 -60c-20 -28 -47.167 -50.167 -81.5 -66.5s-70.833 -24.5 -109.5 -24.5c-39.333 0 -76.166 8.16699 -110.499 24.5s-61.5 38.5 -81.5 66.5
c-14 18.667 -23.333 38.667 -28 60s-7 54 -7 98v429h43z" />
    <glyph glyph-name="V" unicode="V" horiz-adv-x="508" 
d="M61 667l195 -563l192 563h46l-238 -694l-243 694h48z" />
    <glyph glyph-name="W" unicode="W" horiz-adv-x="982" 
d="M62 667l181 -564l242 600l226 -600l208 564h49l-257 -692l-226 605l-248 -605l-224 692h49z" />
    <glyph glyph-name="X" unicode="X" horiz-adv-x="462" 
d="M205 341l-175 326h49l151 -281l150 281h50l-175 -326l184 -341h-49l-160 296l-158 -296h-49z" />
    <glyph glyph-name="Y" unicode="Y" horiz-adv-x="514" 
d="M231 285l-218 382h50l190 -335l195 335h51l-225 -382v-285h-43v285z" />
    <glyph glyph-name="Z" unicode="Z" horiz-adv-x="555" 
d="M111 40h396v-40h-470l407 627h-368v40h443z" />
    <glyph glyph-name="bracketleft" unicode="[" horiz-adv-x="277" 
d="M130 689v-810h107v-39h-150v889h150v-40h-107z" />
    <glyph glyph-name="backslash" unicode="\" horiz-adv-x="544" 
d="M30 743l507 -901l-32 -16l-506 901z" />
    <glyph glyph-name="bracketright" unicode="]" horiz-adv-x="277" 
d="M147 -120v810h-107v39h150v-889h-150v40h107z" />
    <glyph glyph-name="asciicircum" unicode="^" horiz-adv-x="500" 
d="M85 381h-49l185 286h58l185 -286h-50l-165 252z" />
    <glyph glyph-name="underscore" unicode="_" horiz-adv-x="500" 
d="M0 -76h500v-41h-500v41z" />
    <glyph glyph-name="grave" unicode="`" horiz-adv-x="500" 
d="M143 595l44 25l91 -137l-30 -16z" />
    <glyph glyph-name="a" unicode="a" horiz-adv-x="515" 
d="M404 408h39.999v-408h-40v73c-37.333 -56 -89.666 -84 -156.999 -84c-59.333 0 -107.833 20.333 -145.5 61s-56.5 92.667 -56.5 156c0 62.667 18.5 113.5 55.5 152.5s85.167 58.5 144.5 58.5c65.333 0 118.333 -26.667 159 -80v71zM243.999 380
c-44.667 0 -82.167 -16.6689 -112.5 -50.002s-45.5 -74.666 -45.5 -123.999c0 -51.333 15.333 -94.166 46 -128.499s68.667 -51.5 114 -51.5c48 0 86.833 17 116.5 51s44.5 78.667 44.5 134c0 49.333 -15.333 89.833 -46 121.5s-69.667 47.5 -117 47.5z" />
    <glyph glyph-name="b" unicode="b" horiz-adv-x="515" 
d="M111 729l-0.000976562 -392c40.667 53.333 93.667 80 159 80c59.333 0 107.5 -19.5 144.5 -58.5s55.5 -89.833 55.5 -152.5c0 -63.333 -18.833 -115.333 -56.5 -156s-86.167 -61 -145.5 -61c-67.333 0 -119.666 28 -156.999 84v-73h-40v729h40zM270.999 380
c-48.667 0 -88 -15.9971 -118 -47.9971s-45 -74 -45 -126c0 -52.667 15.167 -95.834 45.5 -129.501s68.833 -50.5 115.5 -50.5c45.333 0 83.333 17.167 114 51.5s46 77.166 46 128.499c0 49.333 -15.167 90.666 -45.5 123.999s-67.833 50 -112.5 50z" />
    <glyph glyph-name="c" unicode="c" horiz-adv-x="441" 
d="M398 365l0.00195312 -53c-45.333 45.333 -93.333 68 -144 68c-46.667 0 -86.334 -17.333 -119.001 -52s-49 -76.667 -49 -126c0 -48.667 16.333 -90.167 49 -124.5s72.667 -51.5 120 -51.5c55.333 0 104.666 24.667 147.999 74v-54c-46 -38 -95.333 -57 -148 -57
c-59.333 0 -109.166 20.333 -149.499 61s-60.5 90.667 -60.5 150c0 62 20.167 113.667 60.5 155s90.166 62 149.499 62c51.333 0 99 -17.333 143 -52z" />
    <glyph glyph-name="d" unicode="d" horiz-adv-x="515" 
d="M404 729h39.999v-729h-40v73c-37.333 -56 -89.666 -84 -156.999 -84c-59.333 0 -107.833 20.333 -145.5 61s-56.5 92.667 -56.5 156c0 62.667 18.5 113.5 55.5 152.5s85.167 58.5 144.5 58.5c65.333 0 118.333 -26.667 159 -80v392zM243.999 380
c-44.667 0 -82.167 -16.6689 -112.5 -50.002s-45.5 -74.666 -45.5 -123.999c0 -51.333 15.333 -94.166 46 -128.499s68.667 -51.5 114 -51.5c48 0 86.833 17 116.5 51s44.5 78.667 44.5 134c0 49.333 -15.333 89.833 -46 121.5s-69.667 47.5 -117 47.5z" />
    <glyph glyph-name="e" unicode="e" horiz-adv-x="484" 
d="M439 199h-350.001c2 -52.667 17.5 -94.667 46.5 -126s66.5 -47 112.5 -47c31.333 0 58.333 7.5 81 22.5s43.667 38.833 63 71.5l34 -20c-41.333 -74 -102.333 -111 -183 -111c-57.333 0 -104.666 20.333 -141.999 61s-56 92 -56 154c0 60 19 110.5 57 151.5
s85 61.5 141 61.5c58 0 105 -19.833 141 -59.5s54.333 -92.5 55 -158.5zM91.999 237h300.998c-7.33301 42.667 -24.666 77.167 -51.999 103.5s-59.666 39.5 -96.999 39.5c-38.667 0 -72.167 -13.5 -100.5 -40.5s-45.5 -61.167 -51.5 -102.5z" />
    <glyph glyph-name="f" unicode="f" horiz-adv-x="213" 
d="M111 371l-0.000976562 -371h-40v371h-45v37h45v194c0 92.667 35 139 105 139c12.667 0 25.334 -2 38.001 -6v-37c-15.333 3.33301 -26.333 5 -33 5c-24.667 0 -42.5 -8.66699 -53.5 -26s-16.5 -45 -16.5 -83v-186h103v-37h-103z" />
    <glyph glyph-name="g" unicode="g" horiz-adv-x="521" 
d="M450 408l0.000976562 -400.002c0 -41.333 -3.16699 -74.5 -9.5 -99.5s-17.833 -47.833 -34.5 -68.5c-38.667 -49.333 -92.334 -74 -161.001 -74c-56.667 0 -102.834 15.5 -138.501 46.5s-56.167 73.833 -61.5 128.5h41c5.33301 -43.333 22 -77.166 50 -101.499
s64.667 -36.5 110 -36.5c52.667 0 93.167 17.667 121.5 53s42.5 86 42.5 152v62c-45.333 -53.333 -99.333 -80 -162 -80c-55.333 0 -102.333 20.667 -141 62s-58 92 -58 152c0 60.667 19.667 111.334 59 152.001s88 61 146 61c32.667 0 60.834 -6.16699 84.501 -18.5
s47.5 -32.833 71.5 -61.5v71h40zM248.001 379.998c-43.333 0 -80.502 -17.001 -111.502 -51.001s-46.5 -75.333 -46.5 -124c0 -52 14.833 -94.667 44.5 -128s67.834 -50 114.501 -50c47.333 0 86.5 16.833 117.5 50.5s46.5 76.5 46.5 128.5
c0 50.667 -15.667 92.334 -47 125.001s-70.666 49 -117.999 49z" />
    <glyph glyph-name="h" unicode="h" horiz-adv-x="441" 
d="M71 729l39.999 -0.000976562v-385c30.667 48.667 72.334 73 125.001 73c24 0 46.167 -5.16699 66.5 -15.5s35.833 -24.166 46.5 -41.499c13.333 -22 20 -56.333 20 -103v-257h-40v257c0 44 -7.5 75.5 -22.5 94.5s-40.167 28.5 -75.5 28.5c-80 0 -120 -56 -120 -168v-212
h-40v729z" />
    <glyph glyph-name="i" unicode="i" horiz-adv-x="183" 
d="M111 408v-408h-40v408h40zM92 580c10 0 18.5 -3.5 25.5 -10.5s10.5 -15.5 10.5 -25.5c0 -10.667 -3.5 -19.5 -10.5 -26.5s-15.5 -10.5 -25.5 -10.5c-10.667 0 -19.5 3.5 -26.5 10.5s-10.5 15.833 -10.5 26.5c0 10 3.5 18.5 10.5 25.5s15.833 10.5 26.5 10.5z" />
    <glyph glyph-name="j" unicode="j" horiz-adv-x="183" 
d="M111 408v-647h-40v647h40zM92 580c10 0 18.5 -3.5 25.5 -10.5s10.5 -15.5 10.5 -25.5c0 -10.667 -3.5 -19.5 -10.5 -26.5s-15.5 -10.5 -25.5 -10.5c-10.667 0 -19.5 3.5 -26.5 10.5s-10.5 15.833 -10.5 26.5c0 10 3.5 18.5 10.5 25.5s15.833 10.5 26.5 10.5z" />
    <glyph glyph-name="k" unicode="k" horiz-adv-x="396" 
d="M111 729v-494l167 173h52l-171 -177l229 -231h-55l-201 202l-21 -21v-181h-40v729h40z" />
    <glyph glyph-name="l" unicode="l" horiz-adv-x="183" 
d="M111 729v-729h-40v729h40z" />
    <glyph glyph-name="m" unicode="m" horiz-adv-x="648" 
d="M71 408l40.002 0.000976562v-51c24.667 40 59.667 60 105 60c52 0 90 -24.667 114 -74c25.333 49.333 65.666 74 120.999 74c45.333 0 79.666 -15 102.999 -45c16.667 -21.333 25 -56.333 25 -105v-267h-40v272c0 37.333 -7.16699 64.666 -21.5 81.999
s-36.833 26 -67.5 26c-34 0 -60 -11.5 -78 -34.5s-27 -56.167 -27 -99.5v-246h-40v262c0 78.667 -30 118 -90 118c-33.333 0 -59 -12.5 -77 -37.5s-27 -60.5 -27 -106.5v-236h-40v408z" />
    <glyph glyph-name="n" unicode="n" horiz-adv-x="440" 
d="M71 408l40 -0.000976562v-64c30.667 48.667 72 73 124 73c24 0 46.167 -5.16699 66.5 -15.5s35.833 -24.166 46.5 -41.499c13.333 -22 20 -56.333 20 -103v-257h-40v257c0 44 -7.5 75.5 -22.5 94.5s-40.167 28.5 -75.5 28.5c-79.333 0 -119 -56 -119 -168v-212h-40v408z
" />
    <glyph glyph-name="o" unicode="o" horiz-adv-x="517" 
d="M257 417c60.667 0 111.667 -20.501 153 -61.501s62 -91.833 62 -152.5s-20.667 -111.5 -62 -152.5s-92.333 -61.5 -153 -61.5c-58.667 0 -108.667 20.833 -150 62.5s-62 91.834 -62 150.501c0 59.333 20.667 110 62 152s91.333 63 150 63zM255 379.999
c-46.667 0 -86.5 -17.1689 -119.5 -51.502s-49.5 -76.166 -49.5 -125.499c0 -48.667 16.5 -90.334 49.5 -125.001s72.833 -52 119.5 -52c50 0 91.833 16.833 125.5 50.5s50.5 75.834 50.5 126.501s-16.833 92.834 -50.5 126.501s-75.5 50.5 -125.5 50.5z" />
    <glyph glyph-name="p" unicode="p" horiz-adv-x="515" 
d="M111 -239l-39.999 -0.000976562v647h40v-73c37.333 54.667 89.666 82 156.999 82c58.667 0 107 -20.167 145 -60.5s57 -92.166 57 -155.499c0 -62.667 -18.667 -113.667 -56 -153s-85.333 -59 -144 -59c-65.333 0 -118.333 27.333 -159 82v-310zM269.001 379.999
c-48 0 -86.833 -17 -116.5 -51s-44.5 -78.333 -44.5 -133c0 -49.333 15.333 -90 46 -122s69.667 -48 117 -48c44.667 0 82.167 16.833 112.5 50.5s45.5 75.167 45.5 124.5c0 50.667 -15.333 93.167 -46 127.5s-68.667 51.5 -114 51.5z" />
    <glyph glyph-name="q" unicode="q" horiz-adv-x="515" 
d="M404 -239l0.000976562 310.001c-41.333 -54.667 -94.333 -82 -159 -82c-58.667 0 -106.667 19.667 -144 59s-56 90.333 -56 153c0 63.333 19 115.166 57 155.499s86.333 60.5 145 60.5c67.333 0 119.666 -27.333 156.999 -82v73h40v-647h-40zM246.001 380.001
c-45.333 0 -83.333 -17.167 -114 -51.5s-46 -76.833 -46 -127.5c0 -49.333 15.167 -90.833 45.5 -124.5s67.833 -50.5 112.5 -50.5c48.667 0 88 16.167 118 48.5s45 74.166 45 125.499c0 52.667 -15.167 95.834 -45.5 129.501s-68.833 50.5 -115.5 50.5z" />
    <glyph glyph-name="r" unicode="r" horiz-adv-x="260" 
d="M71 408l40.001 -0.000976562v-53c21.333 41.333 51.333 62 90 62c13.333 0 28 -3.33301 44 -10l-22 -35c-10 6 -19.333 9 -28 9c-14 0 -27.833 -4.83301 -41.5 -14.5s-23.834 -21.5 -30.501 -35.5c-8 -19.333 -12 -56.666 -12 -111.999v-219h-40v408z" />
    <glyph glyph-name="s" unicode="s" horiz-adv-x="342" 
d="M287 351l-33.999 -18c-16.667 31.333 -40.667 47 -72 47c-18 0 -34 -6.5 -48 -19.5s-21 -27.833 -21 -44.5s5.5 -30.167 16.5 -40.5s32.167 -21.5 63.5 -33.5c38 -14 64.333 -26.333 79 -37c26.667 -20 40 -49.667 40 -89c0 -36.667 -12.5 -67 -37.5 -91
s-56.5 -36 -94.5 -36c-72 0 -119 36 -141 108l39 12c18.667 -55.333 52.667 -83 102 -83c26 0 47.667 8.83301 65 26.5s26 39.5 26 65.5c0 20 -5.66699 36 -17 48s-32 23.333 -62 34c-44.667 16 -75.834 32.333 -93.501 49s-26.5 37.667 -26.5 63c0 30 10.833 55 32.5 75
s48.167 30 79.5 30c45.333 0 80 -22 104 -66z" />
    <glyph glyph-name="t" unicode="t" horiz-adv-x="194" 
d="M115 371v-371h-40v371h-45v37h45v146h40v-146h72v-37h-72z" />
    <glyph glyph-name="u" unicode="u" horiz-adv-x="436" 
d="M111 408l0.00195312 -243c0 -42 4.33301 -72 13 -90c7.33301 -14.667 19.666 -26.5 36.999 -35.5s36.333 -13.5 57 -13.5c20 0 38.667 4.5 56 13.5s29.666 20.833 36.999 35.5c8.66699 18 13 48 13 90v243h40v-257c0 -51.333 -10 -88.666 -30 -111.999
c-28 -33.333 -66.667 -50 -116 -50c-50 0 -89 16.667 -117 50c-20 23.333 -30 60.666 -30 111.999v257h40z" />
    <glyph glyph-name="v" unicode="v" horiz-adv-x="390" 
d="M55 408l141 -330l141 330h45l-186 -433l-188 433h47z" />
    <glyph glyph-name="w" unicode="w" horiz-adv-x="672" 
d="M54 408l138 -328l142 353l141 -353l142 328h47l-189 -433l-141 354l-141 -354l-185 433h46z" />
    <glyph glyph-name="x" unicode="x" horiz-adv-x="401" 
d="M174 214l-151 194h52l126 -163l124 163h52l-148 -194l164 -214h-52l-140 183l-140 -183h-53z" />
    <glyph glyph-name="y" unicode="y" horiz-adv-x="428" 
d="M201 -7l-193 415h47l167 -362l152 362h46l-274 -647h-45z" />
    <glyph glyph-name="z" unicode="z" horiz-adv-x="453" 
d="M104 37h329v-37h-415l333 371h-280v37h364z" />
    <glyph glyph-name="braceleft" unicode="{" horiz-adv-x="240" 
d="M211 -127v-37.001h-9h-17c-60.667 0 -91 41.333 -91 124v222c0 26 -4.33301 45.5 -13 58.5s-23.667 22.833 -45 29.5v30c25.333 7.33301 41.333 18.833 48 34.5s10 49.5 10 101.5v173c0 82.667 30.333 124 91 124h17h9v-36c-4.66699 -0.666992 -9.66699 -1 -15 -1
c-23.333 -0.666992 -39 -6.66699 -47 -18s-12 -33.666 -12 -66.999v-176c0 -50.667 -2.5 -84.667 -7.5 -102s-17.167 -33.333 -36.5 -48c16.667 -13.333 28.167 -27.333 34.5 -42s9.5 -34.667 9.5 -60v-225c0 -32.667 4.16699 -55 12.5 -67s23.833 -18 46.5 -18h15z" />
    <glyph glyph-name="bar" unicode="|" horiz-adv-x="500" 
d="M228 667h43v-834h-43v834z" />
    <glyph glyph-name="braceright" unicode="}" horiz-adv-x="240" 
d="M29 697v36.001h9h17c60.667 0 91 -41.333 91 -124v-222c0 -26 4.33301 -45.5 13 -58.5s23.667 -22.5 45 -28.5v-30c-25.333 -7.33301 -41.333 -19 -48 -35s-10 -50 -10 -102v-173c0 -82.667 -30.333 -124 -91 -124h-17h-9v37h15c22.667 0 38.167 6 46.5 18
s12.5 34.333 12.5 67v177c0 50 2.5 83.667 7.5 101s17.167 33.666 36.5 48.999c-16.667 12.667 -28.167 26.334 -34.5 41.001s-9.5 34.667 -9.5 60v225c0 33.333 -4 55.666 -12 66.999s-23.667 17.333 -47 18c-5.33301 0 -10.333 0.333008 -15 1z" />
    <glyph glyph-name="asciitilde" unicode="~" horiz-adv-x="667" 
d="M94 612c19.333 36.667 39 63 59 79s43.667 24 71 24c26.667 0 65.334 -12.667 116.001 -38c47.333 -24 82 -36 104 -36c33.333 0 61.666 18 84.999 54c10.667 15.333 17.667 23 21 23c4.66699 0 12 -6 22 -18c-37.333 -68 -80.333 -102 -129 -102
c-16.667 0 -33.5 2.83301 -50.5 8.5s-44.5 18.167 -82.5 37.5c-36 18.667 -66.333 28 -91 28c-32 0 -60.333 -19.333 -85 -58c-8 -14 -14 -21 -18 -21c-6 0 -13.333 6.33301 -22 19z" />
    <glyph glyph-name="exclamdown" unicode="&#xa1;" horiz-adv-x="259" 
d="M130 514c10 0 18.5 -3.5 25.5 -10.5s10.5 -15.5 10.5 -25.5c0 -10.667 -3.5 -19.5 -10.5 -26.5s-15.5 -10.5 -25.5 -10.5s-18.667 3.66699 -26 11s-11 16 -11 26s3.5 18.5 10.5 25.5s15.833 10.5 26.5 10.5zM151 387v-547h-43v547h43z" />
    <glyph glyph-name="cent" unicode="&#xa2;" 
d="M318 655v-101.998c46 -2.66699 89 -20 129 -52v-52c-22 22 -42.5 37.833 -61.5 47.5s-41.5 16.167 -67.5 19.5v-352c49.333 4 94 28 134 72v-53c-42 -35.333 -86.667 -54.333 -134 -57v-113h-39v114c-55.333 7.33301 -100 30.333 -134 69s-51 85.667 -51 141
c0 57.333 17 105.666 51 144.999s78.667 62.666 134 69.999v103h39zM279 165.002l-0.00195312 348.998c-43.333 -7.33301 -78.166 -27.166 -104.499 -59.499s-39.5 -71.166 -39.5 -116.499c0 -44 13.833 -82.667 41.5 -116s61.834 -52.333 102.501 -57z" />
    <glyph glyph-name="sterling" unicode="&#xa3;" 
d="M276 251l119.995 -0.00195312v-40h-113c2 -12.667 3 -22 3 -28c0 -40 -16.667 -77.667 -50 -113l23.5 -8l19.5 -7c5.33301 -2 12.333 -4.33301 21 -7c34 -12 58 -18 72 -18c36.667 0 68.334 23.333 95.001 70l36 -22c-36 -60.667 -78 -91 -126 -91
c-21.333 0 -57.666 9.33301 -108.999 28c-38.667 14 -66.334 21 -83.001 21c-26.667 0 -57.667 -15.333 -93 -46l-24 32c34.667 38 74.334 57 119.001 57c37.333 35.333 56 71 56 107c0 2 -0.666992 10.333 -2 25h-110v40h99c-18.667 36 -42.667 77 -72 123
c-32 48.667 -48 91 -48 127c0 49.333 17 90.5 51 123.5s76.333 49.5 127 49.5c48.667 0 89.167 -16.667 121.5 -50s48.5 -75.666 48.5 -126.999h-42c-2 42.667 -14.667 76 -38 100s-54.666 36 -93.999 36c-36 0 -66.667 -12.833 -92 -38.5s-38 -56.5 -38 -92.5
c0 -24 9.66699 -53 29 -87l3 -4.5c0.666992 -1 1.33398 -2.16699 2.00098 -3.5s3.83398 -6.66602 9.50098 -15.999l23.5 -38c28 -46 46.333 -80 55 -102z" />
    <glyph glyph-name="currency" unicode="&#xa4;" horiz-adv-x="667" 
d="M73 116l90 89.002c-36.667 43.333 -55 91.666 -55 144.999c0 50.667 17.333 98.667 52 144l-90 90l26 26l90 -90c46 37.333 95.333 56 148 56c52 0 100.333 -18.333 145 -55l91 89l26 -26l-90 -90c35.333 -45.333 53 -93.333 53 -144s-18 -98.334 -54 -143.001l91 -91
l-25 -26l-92 91c-44 -36 -92.667 -54 -146 -54c-50.667 0 -98.667 17.333 -144 52l-90 -90zM334 537.002c-51.333 0 -95 -18.167 -131 -54.5s-54 -80.5 -54 -132.5c0 -50.667 18.167 -94 54.5 -130s79.833 -54 130.5 -54c51.333 0 94.833 18.167 130.5 54.5
s53.5 80.833 53.5 133.5c0 50 -18.167 93 -54.5 129s-79.5 54 -129.5 54z" />
    <glyph glyph-name="yen" unicode="&#xa5;" 
d="M354 391l-61 -103h206v-40h-208v-248h-43v248h-200v40h198l-59 103h-139v40h116l-134 236h51l189 -335l195 335h52l-139 -236h121v-40h-145z" />
    <glyph glyph-name="brokenbar" unicode="&#xa6;" horiz-adv-x="500" 
d="M228 667h43v-326h-43v326zM228 153h43v-320h-43v320z" />
    <glyph glyph-name="section" unicode="&#xa7;" 
d="M115 3l44 -0.00585938c0 -48.667 8.5 -83 25.5 -103s46.5 -30 88.5 -30c37.333 0 66.333 10 87 30s31 47.667 31 83c0 42.667 -18.333 74.334 -55 95.001c-15.333 8.66699 -49 22 -101 40c-90 32 -135 87.333 -135 166c0 74.667 36 128.667 108 162
c-33.333 16.667 -57 35.834 -71 57.501s-21 49.834 -21 84.501c0 46 15.167 82.667 45.5 110s70.5 41 120.5 41c33.333 0 62.333 -6.66699 87 -20s42.667 -31.666 54 -54.999c8 -17.333 14 -49.666 18 -96.999h-45c0 88 -37.667 132 -113 132c-37.333 0 -67 -10.333 -89 -31
s-33 -49 -33 -85c0 -34.667 13.667 -62.667 41 -84c16 -12.667 47.667 -26 95 -40c54 -17.333 92.5 -39.166 115.5 -65.499s34.5 -62.166 34.5 -107.499c0 -70.667 -36 -124.334 -108 -161.001c64.667 -28 97 -76.667 97 -146c0 -46.667 -14.333 -83.167 -43 -109.5
s-68.667 -39.5 -120 -39.5c-72.667 0 -120 23.667 -142 71c-8.66699 18.667 -14 52.667 -16 102zM274 413.994c-36 0 -66.499 -12.5 -91.499 -37.5s-37.5 -55.167 -37.5 -90.5s12.667 -65.666 38 -90.999s55.666 -38 90.999 -38s65.5 12.667 90.5 38
s37.5 55.666 37.5 90.999c0 34.667 -12.667 64.667 -38 90s-55.333 38 -90 38z" />
    <glyph glyph-name="dieresis" unicode="&#xa8;" horiz-adv-x="500" 
d="M168 562c10 0 18.5 -3.5 25.5 -10.5s10.5 -15.5 10.5 -25.5c0 -10.667 -3.5 -19.5 -10.5 -26.5s-15.5 -10.5 -25.5 -10.5s-18.667 3.66699 -26 11s-11 16 -11 26s3.5 18.5 10.5 25.5s15.833 10.5 26.5 10.5zM334 562c10 0 18.5 -3.5 25.5 -10.5s10.5 -15.5 10.5 -25.5
c0 -10.667 -3.5 -19.5 -10.5 -26.5s-15.5 -10.5 -25.5 -10.5c-10.667 0 -19.5 3.5 -26.5 10.5s-10.5 15.833 -10.5 26.5c0 10 3.5 18.5 10.5 25.5s15.833 10.5 26.5 10.5z" />
    <glyph glyph-name="copyright" unicode="&#xa9;" horiz-adv-x="740" 
d="M514 474l0.00195312 -53.001c-38.667 45.333 -82 68 -130 68c-42.667 0 -79.834 -16 -111.501 -48s-47.5 -69.333 -47.5 -112c0 -43.333 15.833 -80.833 47.5 -112.5s68.834 -47.5 111.501 -47.5c48.667 0 92 22 130 66v-52c-42 -32.667 -85 -49 -129 -49
c-54.667 0 -101.334 19.333 -140.001 58s-58 85.334 -58 140.001c0 52.667 19.667 98 59 136s85.666 57 138.999 57c46 0 89 -17 129 -51zM371.002 676.999c95.333 0 176.333 -33.5 243 -100.5s100 -147.833 100 -242.5s-33.5 -175.667 -100.5 -243
s-147.833 -101 -242.5 -101c-95.333 0 -176.5 33.667 -243.5 101s-100.5 148.333 -100.5 243s33.667 175.5 101 242.5s148.333 100.5 243 100.5zM371.002 628.999c-82 0 -151.833 -28.833 -209.5 -86.5s-86.5 -127.167 -86.5 -208.5c0 -82 28.833 -151.833 86.5 -209.5
s127.5 -86.5 209.5 -86.5c81.333 0 150.833 28.833 208.5 86.5s86.5 127.5 86.5 209.5c0 81.333 -28.833 150.833 -86.5 208.5s-127.167 86.5 -208.5 86.5z" />
    <glyph glyph-name="ordfeminine" unicode="&#xaa;" horiz-adv-x="337" 
d="M264 661h25.998v-268h-26v48c-25.333 -36.667 -59.666 -55 -102.999 -55c-38 0 -69.5 13.5 -94.5 40.5s-37.5 60.833 -37.5 101.5s12.167 74 36.5 100s55.833 39 94.5 39c42.667 0 77.334 -17.333 104.001 -52v46zM158.998 643
c-29.333 0 -53.832 -11.001 -73.499 -33.001s-29.5 -49.333 -29.5 -82c0 -33.333 10 -61.333 30 -84s45 -34 75 -34c31.333 0 56.666 11.167 75.999 33.5s29 51.833 29 88.5c0 32.667 -10 59.334 -30 80.001s-45.667 31 -77 31zM32.999 346.999h264v-27h-264v27z" />
    <glyph glyph-name="guillemotleft" unicode="&#xab;" horiz-adv-x="347" 
d="M187 207l107 -126l-26 -24l-129 150l129 149l26 -24zM81 207l106 -126l-25 -24l-129 150l129 149l25 -24z" />
    <glyph glyph-name="logicalnot" unicode="&#xac;" horiz-adv-x="500" 
d="M423 0v227h-390v40h433v-267h-43z" />
    <glyph glyph-name="registered" unicode="&#xae;" horiz-adv-x="740" 
d="M373 315l121 -175h-46l-118 174v-174h-37v380h58c81.333 0 122 -34.667 122 -104c0 -61.333 -33.333 -95 -100 -101zM330 349h28c51.333 0 77 22.667 77 68s-27.333 68 -82 68h-23v-136zM370 677c95.333 0 176.5 -33.333 243.5 -100s100.5 -147.667 100.5 -243
c0 -94.667 -33.667 -175.667 -101 -243s-148.333 -101 -243 -101s-175.5 33.667 -242.5 101s-100.5 148.333 -100.5 243s33.5 175.5 100.5 242.5s147.833 100.5 242.5 100.5zM370 629c-81.333 0 -150.833 -28.833 -208.5 -86.5s-86.5 -127.167 -86.5 -208.5
c0 -82 28.833 -151.833 86.5 -209.5s127.167 -86.5 208.5 -86.5c82 0 151.833 28.833 209.5 86.5s86.5 127.5 86.5 209.5c0 81.333 -28.833 150.833 -86.5 208.5s-127.5 86.5 -209.5 86.5z" />
    <glyph glyph-name="macron" unicode="&#xaf;" horiz-adv-x="500" 
d="M115 532h269v-39h-269v39z" />
    <glyph glyph-name="degree" unicode="&#xb0;" horiz-adv-x="400" 
d="M201 686c42.667 0 78.167 -14.499 106.5 -43.499s42.5 -65.167 42.5 -108.5c0 -42.667 -14.5 -78.834 -43.5 -108.501s-64.5 -44.5 -106.5 -44.5s-77.5 14.833 -106.5 44.5s-43.5 66.167 -43.5 109.5c0 41.333 14.833 76.833 44.5 106.5s65.167 44.5 106.5 44.5z
M199 629.001c-26 0 -47.999 -9.49902 -65.999 -28.499s-27 -42.167 -27 -69.5c0 -24.667 9.16699 -46.334 27.5 -65.001s39.5 -28 63.5 -28c27.333 0 50.166 9 68.499 27s27.5 40.333 27.5 67c0 27.333 -9 50.333 -27 69s-40.333 28 -67 28z" />
    <glyph glyph-name="plusminus" unicode="&#xb1;" horiz-adv-x="549" 
d="M302 662v-245h237v-55h-237v-233h-55v233h-237v55h237v245h55zM11 55h524v-55h-524v55z" />
    <glyph glyph-name="uni00B2" unicode="&#xb2;" horiz-adv-x="387" 
d="M127 297h195.002v-30h-270l167 172c26.667 27.333 45.167 49.5 55.5 66.5s15.5 33.833 15.5 50.5c0 24 -9.16699 44.333 -27.5 61s-40.833 25 -67.5 25c-60 0 -91.667 -31 -95 -93h-34c0.666992 31.333 7 55 19 71c11.333 15.333 27.166 27.833 47.499 37.5
s41.166 14.5 62.499 14.5c36 0 66.5 -11.5 91.5 -34.5s37.5 -50.833 37.5 -83.5c0 -22 -5.83301 -42.667 -17.5 -62s-36.5 -48 -74.5 -86z" />
    <glyph glyph-name="uni00B3" unicode="&#xb3;" horiz-adv-x="387" 
d="M186 459l0.00195312 30.001c27.333 1.33301 49 8.83301 65 22.5s24 31.834 24 54.501c0 21.333 -7.5 39.166 -22.5 53.499s-33.833 21.5 -56.5 21.5c-46.667 0 -73 -25 -79 -75h-33c8 70.667 45.333 106 112 106c31.333 0 58 -10.333 80 -31s33 -45.667 33 -75
c0 -40.667 -19.333 -71 -58 -91c42.667 -17.333 64 -50 64 -98c0 -32 -12.333 -59.333 -37 -82s-54.334 -34 -89.001 -34c-35.333 0 -64 9.83301 -86 29.5s-33.667 46.167 -35 79.5h33c3.33301 -24.667 12.5 -43.834 27.5 -57.501s34.833 -20.5 59.5 -20.5
c25.333 0 47.166 8.5 65.499 25.5s27.5 37.5 27.5 61.5c0 50 -31.667 76.667 -95 80z" />
    <glyph glyph-name="acute" unicode="&#xb4;" horiz-adv-x="500" 
d="M348 595l-106 -128l-29 16l91 137z" />
    <glyph glyph-name="paragraph" unicode="&#xb6;" 
d="M265 -102h-40v440h-13c-45.333 0 -82.5 15.167 -111.5 45.5s-43.5 69.5 -43.5 117.5c0 52 16 92.667 48 122s76.667 44 134 44h243l-18 -37h-44v-732h-40v732h-115v-732z" />
    <glyph glyph-name="periodcentered" unicode="&#xb7;" horiz-adv-x="206" 
d="M104 243c10 0 18.5 -3.5 25.5 -10.5s10.5 -15.5 10.5 -25.5c0 -10.667 -3.5 -19.5 -10.5 -26.5s-15.5 -10.5 -25.5 -10.5s-18.667 3.66699 -26 11s-11 16 -11 26s3.5 18.5 10.5 25.5s15.833 10.5 26.5 10.5z" />
    <glyph glyph-name="cedilla" unicode="&#xb8;" horiz-adv-x="500" 
d="M315 -70l-97 -124l-34 16l82 128z" />
    <glyph glyph-name="uni00B9" unicode="&#xb9;" horiz-adv-x="387" 
d="M189 637h-68l16 30h86v-400h-34v370z" />
    <glyph glyph-name="ordmasculine" unicode="&#xba;" horiz-adv-x="339" 
d="M168 667c40 0 73.5 -13.5 100.5 -40.5s40.5 -60.167 40.5 -99.5s-13.5 -72.5 -40.5 -99.5s-60.5 -40.5 -100.5 -40.5c-38.667 0 -71.5 13.667 -98.5 41s-40.5 60.333 -40.5 99s13.5 71.667 40.5 99s59.833 41 98.5 41zM167 643c-30.667 0 -56.834 -11.333 -78.501 -34
s-32.5 -50 -32.5 -82s10.833 -59.333 32.5 -82s47.834 -34 78.501 -34c32.667 0 60 11.167 82 33.5s33 49.833 33 82.5s-11 60.167 -33 82.5s-49.333 33.5 -82 33.5zM37 347h264v-27h-264v27z" />
    <glyph glyph-name="guillemotright" unicode="&#xbb;" horiz-adv-x="347" 
d="M160 207l-107 125l25 24l129 -149l-129 -150l-25 24zM266 207l-107 125l25 24l130 -149l-130 -150l-25 24z" />
    <glyph glyph-name="onequarter" unicode="&#xbc;" horiz-adv-x="904" 
d="M189 637h-68l16 30h86v-400h-34v370zM636 682l28 -15l-395 -682l-29 16zM802 105h59v-30h-59v-75h-34v75h-229l263 345v-315zM768 105v218l-166 -218h166z" />
    <glyph glyph-name="onehalf" unicode="&#xbd;" horiz-adv-x="904" 
d="M189 637h-68l16 30h86v-400h-34v370zM636 682l28 -15l-395 -682l-29 16zM644 30h195.002v-30h-270l167 172c26.667 27.333 45.167 49.5 55.5 66.5s15.5 33.5 15.5 49.5c0 24 -9.16699 44.333 -27.5 61s-40.833 25 -67.5 25c-60 0 -91.667 -30.667 -95 -92h-34
c0.666992 31.333 7 55 19 71c11.333 15.333 27.166 27.833 47.499 37.5s41.166 14.5 62.499 14.5c36 0 66.5 -11.5 91.5 -34.5s37.5 -50.833 37.5 -83.5c0 -22 -6 -42.5 -18 -61.5s-36.667 -47.833 -74 -86.5z" />
    <glyph glyph-name="threequarters" unicode="&#xbe;" horiz-adv-x="904" 
d="M186 459l0.00195312 30.001c27.333 1.33301 49 8.83301 65 22.5s24 31.834 24 54.501c0 21.333 -7.5 39.166 -22.5 53.499s-33.833 21.5 -56.5 21.5c-46.667 0 -73 -25 -79 -75h-33c8 70.667 45.333 106 112 106c31.333 0 58 -10.333 80 -31s33 -45.667 33 -75
c0 -40.667 -19.333 -71 -58 -91c42.667 -17.333 64 -50 64 -98c0 -32 -12.333 -59.333 -37 -82s-54.334 -34 -89.001 -34c-35.333 0 -64 9.83301 -86 29.5s-33.667 46.167 -35 79.5h33c3.33301 -24.667 12.5 -43.834 27.5 -57.501s34.833 -20.5 59.5 -20.5
c25.333 0 47.166 8.5 65.499 25.5s27.5 37.5 27.5 61.5c0 50 -31.667 76.667 -95 80zM635.002 682.001l29 -15l-395 -682l-29 16zM801.002 105.001h60v-30h-60v-75h-34v75h-229l263 345v-315zM767.002 105.001v218l-166 -218h166z" />
    <glyph glyph-name="questiondown" unicode="&#xbf;" horiz-adv-x="465" 
d="M135 250l-39.998 -0.00195312v10c0 40 12.667 72.667 38 98s58 38 98 38s73.167 -13 99.5 -39s39.5 -58.667 39.5 -98c0 -68 -41.667 -113.333 -125 -136c-34 -9.33301 -55.833 -15.833 -65.5 -19.5s-18.834 -9.5 -27.501 -17.5c-24 -19.333 -36 -48.666 -36 -87.999
c0 -36 11.167 -65.833 33.5 -89.5s50.5 -35.5 84.5 -35.5c32.667 0 60 11.167 82 33.5s33 50.166 33 83.499c0 14 -2 29.667 -6 47h41c4.66699 -25.333 7 -43.666 7 -54.999c0 -42 -15.167 -77.167 -45.5 -105.5s-68.166 -42.5 -113.499 -42.5
c-46.667 0 -84.834 15.167 -114.501 45.5s-44.5 69.5 -44.5 117.5c0 26.667 6.16699 52.167 18.5 76.5s28.166 42.833 47.499 55.5c16 10 35.667 18 59 24l32 8l16 5c54 14 81 44.667 81 92c0 28.667 -9.16699 52.334 -27.5 71.001s-41.833 28 -70.5 28
c-56.667 0 -88 -35.667 -94 -107zM233.002 512.998c10 0 18.5 -3.5 25.5 -10.5s10.5 -15.5 10.5 -25.5c0 -10.667 -3.5 -19.5 -10.5 -26.5s-15.5 -10.5 -25.5 -10.5s-18.667 3.66699 -26 11s-11 16 -11 26s3.5 18.5 10.5 25.5s15.833 10.5 26.5 10.5z" />
    <glyph glyph-name="Agrave" unicode="&#xc0;" horiz-adv-x="584" 
d="M434 219h-284l-89 -219h-48l280 687l278 -687h-49zM418 259l-125 316l-127 -316h252zM160 816l50 31l122 -108l-35 -26z" />
    <glyph glyph-name="Aacute" unicode="&#xc1;" horiz-adv-x="584" 
d="M434 219h-284l-89 -219h-48l280 687l278 -687h-49zM418 259l-125 316l-127 -316h252zM425 816l-137 -103l-35 26l122 108z" />
    <glyph glyph-name="Acircumflex" unicode="&#xc2;" horiz-adv-x="584" 
d="M434 219h-284l-89 -219h-48l280 687l278 -687h-49zM418 259l-125 316l-127 -316h252zM167 746l125 96l125 -96l-37 -28l-88 68l-90 -68z" />
    <glyph glyph-name="Atilde" unicode="&#xc3;" horiz-adv-x="584" 
d="M434 219h-284l-89 -219h-48l280 687l278 -687h-49zM418 259l-125 316l-127 -316h252zM192 717l-30.001 22.001c17.333 40 41 60 71 60c14.667 0 35.334 -5.66699 62.001 -17c26.667 -12 45.334 -18 56.001 -18c17.333 0 31.333 12.667 42 38l28 -22
c-6 -18.667 -15.667 -33.334 -29 -44.001s-28.333 -16 -45 -16c-10 0 -28.667 5.66699 -56 17c-28.667 12 -49 18 -61 18c-9.33301 0 -16.833 -2.83301 -22.5 -8.5s-10.834 -15.5 -15.501 -29.5z" />
    <glyph glyph-name="Adieresis" unicode="&#xc4;" horiz-adv-x="584" 
d="M434 219h-284l-89 -219h-48l280 687l278 -687h-49zM418 259l-125 316l-127 -316h252zM200 818c10.667 0 19.667 -3.66699 27 -11s11 -16.333 11 -27s-3.66699 -19.834 -11 -27.501s-16.333 -11.5 -27 -11.5s-19.834 3.83301 -27.501 11.5s-11.5 16.834 -11.5 27.501
s3.83301 19.667 11.5 27s16.834 11 27.501 11zM386 818c10.667 0 19.667 -3.66699 27 -11s11 -16.333 11 -27s-3.66699 -19.834 -11 -27.501s-16.333 -11.5 -27 -11.5s-19.834 3.83301 -27.501 11.5s-11.5 16.834 -11.5 27.501s3.83301 19.667 11.5 27s16.834 11 27.501 11z
" />
    <glyph glyph-name="Aring" unicode="&#xc5;" horiz-adv-x="584" 
d="M434 219h-284l-89 -219h-48l280 687l278 -687h-49zM418 259l-125 316l-127 -316h252zM292 867c22 0 40.833 -7.83301 56.5 -23.5s23.5 -34.5 23.5 -56.5s-7.83301 -40.833 -23.5 -56.5s-34.5 -23.5 -56.5 -23.5s-40.833 7.83301 -56.5 23.5s-23.5 34.5 -23.5 56.5
s7.83301 40.833 23.5 56.5s34.5 23.5 56.5 23.5zM292 828c-11.333 0 -21 -4 -29 -12s-12 -17.667 -12 -29s4.16699 -21 12.5 -29s17.833 -12 28.5 -12c11.333 0 21 4 29 12s12 17.667 12 29s-4 21 -12 29s-17.667 12 -29 12z" />
    <glyph glyph-name="AE" unicode="&#xc6;" horiz-adv-x="851" 
d="M433 219h-286l-86 -219h-48l269 667h290l16 -40h-275l99 -242h268l16 -40h-267l123 -305h276l16 -40h-323zM416 259l-127 314l-125 -314h252z" />
    <glyph glyph-name="Ccedilla" unicode="&#xc7;" horiz-adv-x="677" 
d="M623 590l0.00292969 -60c-62.667 70 -137.334 105 -224.001 105c-80.667 0 -151 -30 -211 -90s-90 -130.333 -90 -211c0 -82.667 29.667 -154 89 -214s129.666 -90 210.999 -90c86.667 0 161.667 33.333 225 100v-58c-70.667 -55.333 -144.667 -83 -222 -83
c-94 0 -175.5 34 -244.5 102s-103.5 148.333 -103.5 241c0 94 34.167 174.833 102.5 242.5s150.166 101.5 245.499 101.5c80.667 0 154.667 -28.667 222 -86zM430.003 -75l-107 -127l-36 19l88 133z" />
    <glyph glyph-name="Egrave" unicode="&#xc8;" horiz-adv-x="463" 
d="M409 627h-276v-242h270v-40h-270v-305h276v-40h-319v667h319v-40zM106 816l50 31l122 -108l-35 -26z" />
    <glyph glyph-name="Eacute" unicode="&#xc9;" horiz-adv-x="463" 
d="M409 627h-276v-242h270v-40h-270v-305h276v-40h-319v667h319v-40zM324 816l-137 -103l-35 26l122 108z" />
    <glyph glyph-name="Ecircumflex" unicode="&#xca;" horiz-adv-x="463" 
d="M409 627h-276v-242h270v-40h-270v-305h276v-40h-319v667h319v-40zM126 746l125 96l125 -96l-37 -28l-88 68l-90 -68z" />
    <glyph glyph-name="Edieresis" unicode="&#xcb;" horiz-adv-x="463" 
d="M409 627h-276v-242h270v-40h-270v-305h276v-40h-319v667h319v-40zM159 818c10.667 0 19.665 -3.66699 26.998 -11s11 -16.333 11 -27s-3.66699 -19.834 -11 -27.501s-16.333 -11.5 -27 -11.5c-11.333 0 -20.666 3.83301 -27.999 11.5s-11 16.834 -11 27.501
s3.83301 19.667 11.5 27s16.834 11 27.501 11zM344.998 818c10.667 0 19.665 -3.66699 26.998 -11s11 -16.333 11 -27s-3.66699 -19.834 -11 -27.501s-16.333 -11.5 -27 -11.5c-11.333 0 -20.666 3.83301 -27.999 11.5s-11 16.834 -11 27.501s3.83301 19.667 11.5 27
s16.834 11 27.501 11z" />
    <glyph glyph-name="Igrave" unicode="&#xcc;" horiz-adv-x="223" 
d="M133 667v-667h-43v667h43zM-21 816l50 31l122 -108l-35 -26z" />
    <glyph glyph-name="Iacute" unicode="&#xcd;" horiz-adv-x="223" 
d="M133 667v-667h-43v667h43zM244 816l-137 -103l-35 26l122 108z" />
    <glyph glyph-name="Icircumflex" unicode="&#xce;" horiz-adv-x="223" 
d="M133 667v-667h-43v667h43zM-13 746l125 96l125 -96l-37 -28l-88 68l-90 -68z" />
    <glyph glyph-name="Idieresis" unicode="&#xcf;" horiz-adv-x="223" 
d="M133 667v-667h-43v667h43zM49 818c10.667 0 19.665 -3.66699 26.998 -11s11 -16.333 11 -27s-3.66699 -19.834 -11 -27.501s-16.333 -11.5 -27 -11.5c-11.333 0 -20.666 3.83301 -27.999 11.5s-11 16.834 -11 27.501s3.83301 19.667 11.5 27s16.834 11 27.501 11z
M174.998 818c10.667 0 19.665 -3.66699 26.998 -11s11 -16.333 11 -27s-3.66699 -19.834 -11 -27.501s-16.333 -11.5 -27 -11.5c-11.333 0 -20.666 3.83301 -27.999 11.5s-11 16.834 -11 27.501s3.83301 19.667 11.5 27s16.834 11 27.501 11z" />
    <glyph glyph-name="Eth" unicode="&#xd0;" horiz-adv-x="617" 
d="M90 0v320h-67v40h67v307h132c100.667 0 182 -30.667 244 -92c65.333 -64 98 -145 98 -243c0 -95.333 -32.667 -175 -98 -239c-62 -62 -143.333 -93 -244 -93h-132zM133 40h88c87.333 0 158.833 27.333 214.5 82s83.5 124.667 83.5 210
c0 86.667 -27.833 157.5 -83.5 212.5s-127.167 82.5 -214.5 82.5h-88v-267h167v-40h-167v-280z" />
    <glyph glyph-name="Ntilde" unicode="&#xd1;" horiz-adv-x="783" 
d="M90 0v674l560 -586v579h43v-684l-560 586v-569h-43zM292 717l-30.002 22.001c17.333 40 41 60 71 60c14.667 0 35.334 -5.66699 62.001 -17c26.667 -12 45.334 -18 56.001 -18c17.333 0 31.333 12.667 42 38l28 -22c-6 -18.667 -15.667 -33.334 -29 -44.001
s-28.333 -16 -45 -16c-10 0 -28.667 5.66699 -56 17c-29.333 12 -49.666 18 -60.999 18c-9.33301 0 -16.833 -2.83301 -22.5 -8.5s-10.834 -15.5 -15.501 -29.5z" />
    <glyph glyph-name="Ograve" unicode="&#xd2;" horiz-adv-x="798" 
d="M399 676c94 0 175 -33.833 243 -101.5s102 -148.167 102 -241.5c0 -94 -34 -174.833 -102 -242.5s-149 -101.5 -243 -101.5c-94.667 0 -176 33.833 -244 101.5s-102 148.5 -102 242.5c0 93.333 34 173.833 102 241.5s149.333 101.5 244 101.5zM399 635
c-82.667 0 -153.5 -29.6689 -212.5 -89.002s-88.5 -130.666 -88.5 -213.999c0 -82.667 29.5 -153.667 88.5 -213s129.833 -89 212.5 -89c82 0 152.5 29.667 211.5 89s88.5 130.333 88.5 213s-29.5 153.834 -88.5 213.501s-129.5 89.5 -211.5 89.5zM266 815.998l50 31
l122 -108l-35 -26z" />
    <glyph glyph-name="Oacute" unicode="&#xd3;" horiz-adv-x="798" 
d="M399 676c94 0 175 -33.833 243 -101.5s102 -148.167 102 -241.5c0 -94 -34 -174.833 -102 -242.5s-149 -101.5 -243 -101.5c-94.667 0 -176 33.833 -244 101.5s-102 148.5 -102 242.5c0 93.333 34 173.833 102 241.5s149.333 101.5 244 101.5zM399 635
c-82.667 0 -153.5 -29.6689 -212.5 -89.002s-88.5 -130.666 -88.5 -213.999c0 -82.667 29.5 -153.667 88.5 -213s129.833 -89 212.5 -89c82 0 152.5 29.667 211.5 89s88.5 130.333 88.5 213s-29.5 153.834 -88.5 213.501s-129.5 89.5 -211.5 89.5zM531 815.998l-137 -103
l-35 26l122 108z" />
    <glyph glyph-name="Ocircumflex" unicode="&#xd4;" horiz-adv-x="798" 
d="M399 676c94 0 175 -33.833 243 -101.5s102 -148.167 102 -241.5c0 -94 -34 -174.833 -102 -242.5s-149 -101.5 -243 -101.5c-94.667 0 -176 33.833 -244 101.5s-102 148.5 -102 242.5c0 93.333 34 173.833 102 241.5s149.333 101.5 244 101.5zM399 635
c-82.667 0 -153.5 -29.6689 -212.5 -89.002s-88.5 -130.666 -88.5 -213.999c0 -82.667 29.5 -153.667 88.5 -213s129.833 -89 212.5 -89c82 0 152.5 29.667 211.5 89s88.5 130.333 88.5 213s-29.5 153.834 -88.5 213.501s-129.5 89.5 -211.5 89.5zM274 745.998l125 96
l125 -96l-37 -28l-88 68l-90 -68z" />
    <glyph glyph-name="Otilde" unicode="&#xd5;" horiz-adv-x="798" 
d="M399 676c94 0 175 -33.833 243 -101.5s102 -148.167 102 -241.5c0 -94 -34 -174.833 -102 -242.5s-149 -101.5 -243 -101.5c-94.667 0 -176 33.833 -244 101.5s-102 148.5 -102 242.5c0 93.333 34 173.833 102 241.5s149.333 101.5 244 101.5zM399 635
c-82.667 0 -153.5 -29.6689 -212.5 -89.002s-88.5 -130.666 -88.5 -213.999c0 -82.667 29.5 -153.667 88.5 -213s129.833 -89 212.5 -89c82 0 152.5 29.667 211.5 89s88.5 130.333 88.5 213s-29.5 153.834 -88.5 213.501s-129.5 89.5 -211.5 89.5zM299 716.998
l-30.001 22.001c17.333 40 41 60 71 60c14.667 0 35.334 -5.66699 62.001 -17c26.667 -12 45.334 -18 56.001 -18c17.333 0 31.333 12.667 42 38l28 -22c-6 -18.667 -15.667 -33.334 -29 -44.001s-28.333 -16 -45 -16c-10 0 -28.667 5.66699 -56 17
c-28.667 12 -49 18 -61 18c-9.33301 0 -16.833 -2.83301 -22.5 -8.5s-10.834 -15.5 -15.501 -29.5z" />
    <glyph glyph-name="Odieresis" unicode="&#xd6;" horiz-adv-x="798" 
d="M399 676c94 0 175 -33.833 243 -101.5s102 -148.167 102 -241.5c0 -94 -34 -174.833 -102 -242.5s-149 -101.5 -243 -101.5c-94.667 0 -176 33.833 -244 101.5s-102 148.5 -102 242.5c0 93.333 34 173.833 102 241.5s149.333 101.5 244 101.5zM399 635
c-82.667 0 -153.5 -29.6689 -212.5 -89.002s-88.5 -130.666 -88.5 -213.999c0 -82.667 29.5 -153.667 88.5 -213s129.833 -89 212.5 -89c82 0 152.5 29.667 211.5 89s88.5 130.333 88.5 213s-29.5 153.834 -88.5 213.501s-129.5 89.5 -211.5 89.5zM306 817.998
c10.667 0 19.667 -3.66699 27 -11s11 -16.333 11 -27s-3.66699 -19.834 -11 -27.501s-16.333 -11.5 -27 -11.5s-19.834 3.83301 -27.501 11.5s-11.5 16.834 -11.5 27.501s3.83301 19.667 11.5 27s16.834 11 27.501 11zM492 817.998c10.667 0 19.667 -3.66699 27 -11
s11 -16.333 11 -27s-3.66699 -19.834 -11 -27.501s-16.333 -11.5 -27 -11.5s-19.834 3.83301 -27.501 11.5s-11.5 16.834 -11.5 27.501s3.83301 19.667 11.5 27s16.834 11 27.501 11z" />
    <glyph glyph-name="multiply" unicode="&#xd7;" 
d="M77 509l27 28l169 -170l170 170l27 -28l-169 -169l169 -169l-27 -27l-170 169l-169 -169l-27 27l169 169z" />
    <glyph glyph-name="Oslash" unicode="&#xd8;" horiz-adv-x="798" 
d="M59 25l80.001 81c-57.333 66.667 -86 142 -86 226c0 94 34 174.833 102 242.5s149.333 101.5 244 101.5c81.333 0 156 -28 224 -84l81 81l27 -26l-80 -81c62 -68 93 -145.667 93 -233c0 -94 -34 -174.833 -102 -242.5s-149 -101.5 -243 -101.5
c-84.667 0 -162.334 30.333 -233.001 91l-80 -81zM171.001 135l420.999 428c-57.333 48 -121.666 72 -192.999 72c-82.667 0 -153.5 -29.667 -212.5 -89s-88.5 -130.666 -88.5 -213.999c0 -74.667 24.333 -140.334 73 -197.001zM619 538l-422 -429.999
c60 -52 127 -78 201 -78c82.667 0 153.5 29.667 212.5 89s88.5 130.666 88.5 213.999c0 78 -26.667 146.333 -80 205z" />
    <glyph glyph-name="Ugrave" unicode="&#xd9;" horiz-adv-x="633" 
d="M133 667l-0.00195312 -417c0 -41.333 1.66699 -71.833 5 -91.5s9.66602 -36.834 18.999 -51.501c14.667 -22.667 36.834 -41.167 66.501 -55.5s60.834 -21.5 93.501 -21.5c32 0 62.833 7.16699 92.5 21.5s51.834 32.833 66.501 55.5
c9.33301 14.667 15.666 31.834 18.999 51.501s5 50.167 5 91.5v417h43v-429c0 -44 -2.33301 -76.667 -7 -98s-14 -41.333 -28 -60c-20 -28 -47.167 -50.167 -81.5 -66.5s-70.833 -24.5 -109.5 -24.5c-39.333 0 -76.166 8.16699 -110.499 24.5s-61.5 38.5 -81.5 66.5
c-14 18.667 -23.333 38.667 -28 60s-7 54 -7 98v429h43zM183.998 816l50 31l122 -108l-35 -26z" />
    <glyph glyph-name="Uacute" unicode="&#xda;" horiz-adv-x="633" 
d="M133 667l-0.00195312 -417c0 -41.333 1.66699 -71.833 5 -91.5s9.66602 -36.834 18.999 -51.501c14.667 -22.667 36.834 -41.167 66.501 -55.5s60.834 -21.5 93.501 -21.5c32 0 62.833 7.16699 92.5 21.5s51.834 32.833 66.501 55.5
c9.33301 14.667 15.666 31.834 18.999 51.501s5 50.167 5 91.5v417h43v-429c0 -44 -2.33301 -76.667 -7 -98s-14 -41.333 -28 -60c-20 -28 -47.167 -50.167 -81.5 -66.5s-70.833 -24.5 -109.5 -24.5c-39.333 0 -76.166 8.16699 -110.499 24.5s-61.5 38.5 -81.5 66.5
c-14 18.667 -23.333 38.667 -28 60s-7 54 -7 98v429h43zM448.998 816l-137 -103l-35 26l122 108z" />
    <glyph glyph-name="Ucircumflex" unicode="&#xdb;" horiz-adv-x="633" 
d="M133 667l-0.00195312 -417c0 -41.333 1.66699 -71.833 5 -91.5s9.66602 -36.834 18.999 -51.501c14.667 -22.667 36.834 -41.167 66.501 -55.5s60.834 -21.5 93.501 -21.5c32 0 62.833 7.16699 92.5 21.5s51.834 32.833 66.501 55.5
c9.33301 14.667 15.666 31.834 18.999 51.501s5 50.167 5 91.5v417h43v-429c0 -44 -2.33301 -76.667 -7 -98s-14 -41.333 -28 -60c-20 -28 -47.167 -50.167 -81.5 -66.5s-70.833 -24.5 -109.5 -24.5c-39.333 0 -76.166 8.16699 -110.499 24.5s-61.5 38.5 -81.5 66.5
c-14 18.667 -23.333 38.667 -28 60s-7 54 -7 98v429h43zM191.998 746l125 96l125 -96l-37 -28l-88 68l-90 -68z" />
    <glyph glyph-name="Udieresis" unicode="&#xdc;" horiz-adv-x="633" 
d="M133 667l-0.00195312 -417c0 -41.333 1.66699 -71.833 5 -91.5s9.66602 -36.834 18.999 -51.501c14.667 -22.667 36.834 -41.167 66.501 -55.5s60.834 -21.5 93.501 -21.5c32 0 62.833 7.16699 92.5 21.5s51.834 32.833 66.501 55.5
c9.33301 14.667 15.666 31.834 18.999 51.501s5 50.167 5 91.5v417h43v-429c0 -44 -2.33301 -76.667 -7 -98s-14 -41.333 -28 -60c-20 -28 -47.167 -50.167 -81.5 -66.5s-70.833 -24.5 -109.5 -24.5c-39.333 0 -76.166 8.16699 -110.499 24.5s-61.5 38.5 -81.5 66.5
c-14 18.667 -23.333 38.667 -28 60s-7 54 -7 98v429h43zM223.998 818c10.667 0 19.667 -3.66699 27 -11s11 -16.333 11 -27s-3.66699 -19.834 -11 -27.501s-16.333 -11.5 -27 -11.5s-19.834 3.83301 -27.501 11.5s-11.5 16.834 -11.5 27.501s3.83301 19.667 11.5 27
s16.834 11 27.501 11zM409.998 818c10.667 0 19.667 -3.66699 27 -11s11 -16.333 11 -27s-3.66699 -19.834 -11 -27.501s-16.333 -11.5 -27 -11.5s-19.834 3.83301 -27.501 11.5s-11.5 16.834 -11.5 27.501s3.83301 19.667 11.5 27s16.834 11 27.501 11z" />
    <glyph glyph-name="Yacute" unicode="&#xdd;" horiz-adv-x="514" 
d="M231 285l-218 382h50l190 -335l195 335h51l-225 -382v-285h-43v285zM389 816l-137 -103l-35 26l122 108z" />
    <glyph glyph-name="Thorn" unicode="&#xde;" horiz-adv-x="445" 
d="M133 223v-223h-43v667h43v-94h85c60.667 0 108.167 -15.667 142.5 -47s51.5 -74.333 51.5 -129c0 -54 -17.167 -96.5 -51.5 -127.5s-81.5 -46.5 -141.5 -46.5h-86zM133 263h86.999c44.667 0 80.334 12.333 107.001 37s40 57.667 40 99c0 43.333 -13 76.5 -39 99.5
s-64 34.5 -114 34.5h-81v-270z" />
    <glyph glyph-name="germandbls" unicode="&#xdf;" horiz-adv-x="492" 
d="M71 0l-0.00195312 371.002h-43v37h43v177c0 49.333 12.833 87.666 38.5 114.999s61.834 41 108.501 41c40.667 0 74.334 -13.5 101.001 -40.5s40 -60.833 40 -101.5c0 -58 -26 -99 -78 -123c37.333 -13.333 65.666 -29 84.999 -47c24 -20.667 43.333 -48 58 -82
s22 -68 22 -102c0 -65.333 -22 -121 -66 -167s-101.667 -73.667 -173 -83v41c60 8.66699 108 32 144 70s54 84.333 54 139c0 35.333 -8 68.333 -24 99s-37.667 55 -65 73s-63.666 30.667 -108.999 38v35c74 8 111 45.333 111 112c0 29.333 -9.83301 53.666 -29.5 72.999
s-44.5 29 -74.5 29c-36 0 -62.167 -10.667 -78.5 -32s-24.5 -55 -24.5 -101v-571h-40z" />
    <glyph glyph-name="agrave" unicode="&#xe0;" horiz-adv-x="515" 
d="M404 408h39.999v-408h-40v73c-37.333 -56 -89.666 -84 -156.999 -84c-59.333 0 -107.833 20.333 -145.5 61s-56.5 92.667 -56.5 156c0 62.667 18.5 113.5 55.5 152.5s85.167 58.5 144.5 58.5c65.333 0 118.333 -26.667 159 -80v71zM243.999 380
c-44.667 0 -82.167 -16.6689 -112.5 -50.002s-45.5 -74.666 -45.5 -123.999c0 -51.333 15.333 -94.166 46 -128.499s68.667 -51.5 114 -51.5c48 0 86.833 17 116.5 51s44.5 78.667 44.5 134c0 49.333 -15.333 89.833 -46 121.5s-69.667 47.5 -117 47.5zM143.999 594.998
l44 25l91 -137l-30 -16z" />
    <glyph glyph-name="aacute" unicode="&#xe1;" horiz-adv-x="515" 
d="M404 408h39.999v-408h-40v73c-37.333 -56 -89.666 -84 -156.999 -84c-59.333 0 -107.833 20.333 -145.5 61s-56.5 92.667 -56.5 156c0 62.667 18.5 113.5 55.5 152.5s85.167 58.5 144.5 58.5c65.333 0 118.333 -26.667 159 -80v71zM243.999 380
c-44.667 0 -82.167 -16.6689 -112.5 -50.002s-45.5 -74.666 -45.5 -123.999c0 -51.333 15.333 -94.166 46 -128.499s68.667 -51.5 114 -51.5c48 0 86.833 17 116.5 51s44.5 78.667 44.5 134c0 49.333 -15.333 89.833 -46 121.5s-69.667 47.5 -117 47.5zM355.999 594.998
l-106 -128l-29 16l91 137z" />
    <glyph glyph-name="acircumflex" unicode="&#xe2;" horiz-adv-x="515" 
d="M404 408h39.999v-408h-40v73c-37.333 -56 -89.666 -84 -156.999 -84c-59.333 0 -107.833 20.333 -145.5 61s-56.5 92.667 -56.5 156c0 62.667 18.5 113.5 55.5 152.5s85.167 58.5 144.5 58.5c65.333 0 118.333 -26.667 159 -80v71zM243.999 380
c-44.667 0 -82.167 -16.6689 -112.5 -50.002s-45.5 -74.666 -45.5 -123.999c0 -51.333 15.333 -94.166 46 -128.499s68.667 -51.5 114 -51.5c48 0 86.833 17 116.5 51s44.5 78.667 44.5 134c0 49.333 -15.333 89.833 -46 121.5s-69.667 47.5 -117 47.5zM125.999 491.998
l121 94l122 -94l-33 -25l-89 68l-89 -68z" />
    <glyph glyph-name="atilde" unicode="&#xe3;" horiz-adv-x="515" 
d="M404 408h39.999v-408h-40v73c-37.333 -56 -89.666 -84 -156.999 -84c-59.333 0 -107.833 20.333 -145.5 61s-56.5 92.667 -56.5 156c0 62.667 18.5 113.5 55.5 152.5s85.167 58.5 144.5 58.5c65.333 0 118.333 -26.667 159 -80v71zM243.999 380
c-44.667 0 -82.167 -16.6689 -112.5 -50.002s-45.5 -74.666 -45.5 -123.999c0 -51.333 15.333 -94.166 46 -128.499s68.667 -51.5 114 -51.5c48 0 86.833 17 116.5 51s44.5 78.667 44.5 134c0 49.333 -15.333 89.833 -46 121.5s-69.667 47.5 -117 47.5zM145.999 486.998
l-25.998 18.999c17.333 38 40.333 57 69 57c14 0 34 -5.66699 60 -17c28 -12 47 -18 57 -18c18 0 32.333 12.333 43 37l26 -20c-6 -17.333 -15.5 -31.166 -28.5 -41.499s-27.5 -15.5 -43.5 -15.5c-8.66699 0 -27.334 5.66699 -56.001 17c-28.667 12 -49.334 18 -62.001 18
c-18 0 -31 -12 -39 -36z" />
    <glyph glyph-name="adieresis" unicode="&#xe4;" horiz-adv-x="515" 
d="M404 408h39.999v-408h-40v73c-37.333 -56 -89.666 -84 -156.999 -84c-59.333 0 -107.833 20.333 -145.5 61s-56.5 92.667 -56.5 156c0 62.667 18.5 113.5 55.5 152.5s85.167 58.5 144.5 58.5c65.333 0 118.333 -26.667 159 -80v71zM243.999 380
c-44.667 0 -82.167 -16.6689 -112.5 -50.002s-45.5 -74.666 -45.5 -123.999c0 -51.333 15.333 -94.166 46 -128.499s68.667 -51.5 114 -51.5c48 0 86.833 17 116.5 51s44.5 78.667 44.5 134c0 49.333 -15.333 89.833 -46 121.5s-69.667 47.5 -117 47.5zM168.999 561.998
c10 0 18.5 -3.5 25.5 -10.5s10.5 -15.5 10.5 -25.5c0 -10.667 -3.5 -19.5 -10.5 -26.5s-15.5 -10.5 -25.5 -10.5s-18.667 3.66699 -26 11s-11 16 -11 26s3.5 18.5 10.5 25.5s15.833 10.5 26.5 10.5zM334.999 561.998c10 0 18.5 -3.5 25.5 -10.5s10.5 -15.5 10.5 -25.5
c0 -10.667 -3.5 -19.5 -10.5 -26.5s-15.5 -10.5 -25.5 -10.5c-10.667 0 -19.5 3.5 -26.5 10.5s-10.5 15.833 -10.5 26.5c0 10 3.5 18.5 10.5 25.5s15.833 10.5 26.5 10.5z" />
    <glyph glyph-name="aring" unicode="&#xe5;" horiz-adv-x="515" 
d="M404 408h39.999v-408h-40v73c-37.333 -56 -89.666 -84 -156.999 -84c-59.333 0 -107.833 20.333 -145.5 61s-56.5 92.667 -56.5 156c0 62.667 18.5 113.5 55.5 152.5s85.167 58.5 144.5 58.5c65.333 0 118.333 -26.667 159 -80v71zM243.999 380
c-44.667 0 -82.167 -16.6689 -112.5 -50.002s-45.5 -74.666 -45.5 -123.999c0 -51.333 15.333 -94.166 46 -128.499s68.667 -51.5 114 -51.5c48 0 86.833 17 116.5 51s44.5 78.667 44.5 134c0 49.333 -15.333 89.833 -46 121.5s-69.667 47.5 -117 47.5zM247.999 625.998
c21.333 0 39.333 -7.33301 54 -22s22 -32.667 22 -54s-7.33301 -39.5 -22 -54.5s-32.667 -22.5 -54 -22.5s-39.5 7.5 -54.5 22.5s-22.5 33.167 -22.5 54.5s7.5 39.333 22.5 54s33.167 22 54.5 22zM247.999 589.998c-11.333 0 -21.166 -4 -29.499 -12
s-12.5 -17.667 -12.5 -29s4.16699 -21 12.5 -29s18.166 -12 29.499 -12s21 4 29 12s12 17.667 12 29s-4 21 -12 29s-17.667 12 -29 12z" />
    <glyph glyph-name="ae" unicode="&#xe6;" horiz-adv-x="793" 
d="M749 198l-351 0.00195312c2.66699 -52.667 18.167 -94.5 46.5 -125.5s65.5 -46.5 111.5 -46.5c56.667 0 105 31 145 93l34 -24c-48 -70.667 -108.333 -106 -181 -106c-37.333 0 -70.833 9 -100.5 27s-52.167 43 -67.5 75
c-10.667 -32.667 -30.834 -57.834 -60.501 -75.501s-66.167 -26.5 -109.5 -26.5c-50 0 -91 12 -123 36s-48 54.667 -48 92c0 38 16.5 68.833 49.5 92.5s75.833 35.5 128.5 35.5s96 -14 130 -42c0 57.333 -12.167 101.166 -36.5 131.499s-59.5 45.5 -105.5 45.5
c-38 0 -84 -12.667 -138 -38v41c48 22.667 94 34 138 34c81.333 0 137 -38 167 -114c37.333 76 95 114 173 114c38 0 72.667 -10 104 -30s55 -47 71 -81c12.667 -29.333 20.334 -65.333 23.001 -108zM401 236.002h301.997c-7.33301 44 -24.666 79 -51.999 105s-60 39 -98 39
c-39.333 0 -72.666 -13 -99.999 -39s-44.666 -61 -51.999 -105zM222.997 208.002c-42 0 -75.334 -8.16699 -100.001 -24.5s-37 -38.5 -37 -66.5c0 -28.667 11.667 -51 35 -67s56 -24 98 -24c38.667 0 70.334 8.83301 95.001 26.5s37 40.167 37 67.5
c0 26.667 -11.667 48 -35 64s-54.333 24 -93 24z" />
    <glyph glyph-name="ccedilla" unicode="&#xe7;" horiz-adv-x="441" 
d="M398 365l0.00195312 -53c-45.333 45.333 -93.333 68 -144 68c-46.667 0 -86.334 -17.333 -119.001 -52s-49 -76.667 -49 -126c0 -48.667 16.333 -90.167 49 -124.5s72.667 -51.5 120 -51.5c55.333 0 104.666 24.667 147.999 74v-54c-46 -38 -95.333 -57 -148 -57
c-59.333 0 -109.166 20.333 -149.499 61s-60.5 90.667 -60.5 150c0 62 20.167 113.667 60.5 155s90.166 62 149.499 62c51.333 0 99 -17.333 143 -52zM293.002 -70l-98 -124l-33 16l82 128z" />
    <glyph glyph-name="egrave" unicode="&#xe8;" horiz-adv-x="484" 
d="M439 199h-350.001c2 -52.667 17.5 -94.667 46.5 -126s66.5 -47 112.5 -47c31.333 0 58.333 7.5 81 22.5s43.667 38.833 63 71.5l34 -20c-41.333 -74 -102.333 -111 -183 -111c-57.333 0 -104.666 20.333 -141.999 61s-56 92 -56 154c0 60 19 110.5 57 151.5
s85 61.5 141 61.5c58 0 105 -19.833 141 -59.5s54.333 -92.5 55 -158.5zM91.999 237h300.998c-7.33301 42.667 -24.666 77.167 -51.999 103.5s-59.666 39.5 -96.999 39.5c-38.667 0 -72.167 -13.5 -100.5 -40.5s-45.5 -61.167 -51.5 -102.5zM134.997 595l44 25l91 -137
l-30 -16z" />
    <glyph glyph-name="eacute" unicode="&#xe9;" horiz-adv-x="484" 
d="M439 199h-350.001c2 -52.667 17.5 -94.667 46.5 -126s66.5 -47 112.5 -47c31.333 0 58.333 7.5 81 22.5s43.667 38.833 63 71.5l34 -20c-41.333 -74 -102.333 -111 -183 -111c-57.333 0 -104.666 20.333 -141.999 61s-56 92 -56 154c0 60 19 110.5 57 151.5
s85 61.5 141 61.5c58 0 105 -19.833 141 -59.5s54.333 -92.5 55 -158.5zM91.999 237h300.998c-7.33301 42.667 -24.666 77.167 -51.999 103.5s-59.666 39.5 -96.999 39.5c-38.667 0 -72.167 -13.5 -100.5 -40.5s-45.5 -61.167 -51.5 -102.5zM349.997 595l-106 -128l-29 16
l91 137z" />
    <glyph glyph-name="ecircumflex" unicode="&#xea;" horiz-adv-x="484" 
d="M439 199h-350.001c2 -52.667 17.5 -94.667 46.5 -126s66.5 -47 112.5 -47c31.333 0 58.333 7.5 81 22.5s43.667 38.833 63 71.5l34 -20c-41.333 -74 -102.333 -111 -183 -111c-57.333 0 -104.666 20.333 -141.999 61s-56 92 -56 154c0 60 19 110.5 57 151.5
s85 61.5 141 61.5c58 0 105 -19.833 141 -59.5s54.333 -92.5 55 -158.5zM91.999 237h300.998c-7.33301 42.667 -24.666 77.167 -51.999 103.5s-59.666 39.5 -96.999 39.5c-38.667 0 -72.167 -13.5 -100.5 -40.5s-45.5 -61.167 -51.5 -102.5zM119.997 492l121 94l122 -94
l-33 -25l-89 68l-89 -68z" />
    <glyph glyph-name="edieresis" unicode="&#xeb;" horiz-adv-x="484" 
d="M439 199h-350.001c2 -52.667 17.5 -94.667 46.5 -126s66.5 -47 112.5 -47c31.333 0 58.333 7.5 81 22.5s43.667 38.833 63 71.5l34 -20c-41.333 -74 -102.333 -111 -183 -111c-57.333 0 -104.666 20.333 -141.999 61s-56 92 -56 154c0 60 19 110.5 57 151.5
s85 61.5 141 61.5c58 0 105 -19.833 141 -59.5s54.333 -92.5 55 -158.5zM91.999 237h300.998c-7.33301 42.667 -24.666 77.167 -51.999 103.5s-59.666 39.5 -96.999 39.5c-38.667 0 -72.167 -13.5 -100.5 -40.5s-45.5 -61.167 -51.5 -102.5zM159.997 562
c10 0 18.5 -3.5 25.5 -10.5s10.5 -15.5 10.5 -25.5c0 -10.667 -3.5 -19.5 -10.5 -26.5s-15.5 -10.5 -25.5 -10.5s-18.667 3.66699 -26 11s-11 16 -11 26s3.5 18.5 10.5 25.5s15.833 10.5 26.5 10.5zM325.997 562c10 0 18.5 -3.5 25.5 -10.5s10.5 -15.5 10.5 -25.5
c0 -10.667 -3.5 -19.5 -10.5 -26.5s-15.5 -10.5 -25.5 -10.5c-10.667 0 -19.5 3.5 -26.5 10.5s-10.5 15.833 -10.5 26.5c0 10 3.5 18.5 10.5 25.5s15.833 10.5 26.5 10.5z" />
    <glyph glyph-name="igrave" unicode="&#xec;" horiz-adv-x="183" 
d="M111 408v-408h-40v408h40zM-20 595l44 25l91 -137l-30 -16z" />
    <glyph glyph-name="iacute" unicode="&#xed;" horiz-adv-x="183" 
d="M111 408v-408h-40v408h40zM203 595l-106 -128l-29 16l91 137z" />
    <glyph glyph-name="icircumflex" unicode="&#xee;" horiz-adv-x="183" 
d="M112 408v-408h-40v408h40zM-30 492l121 94l122 -94l-33 -25l-89 68l-89 -68z" />
    <glyph glyph-name="idieresis" unicode="&#xef;" horiz-adv-x="183" 
d="M111 408v-408h-40v408h40zM32 562c10 0 18.5 -3.5 25.5 -10.5s10.5 -15.5 10.5 -25.5c0 -10.667 -3.5 -19.5 -10.5 -26.5s-15.5 -10.5 -25.5 -10.5s-18.667 3.66699 -26 11s-11 16 -11 26s3.5 18.5 10.5 25.5s15.833 10.5 26.5 10.5zM151 562c10 0 18.5 -3.5 25.5 -10.5
s10.5 -15.5 10.5 -25.5c0 -10.667 -3.5 -19.5 -10.5 -26.5s-15.5 -10.5 -25.5 -10.5s-18.667 3.66699 -26 11s-11 16 -11 26s3.5 18.5 10.5 25.5s15.833 10.5 26.5 10.5z" />
    <glyph glyph-name="eth" unicode="&#xf0;" horiz-adv-x="517" 
d="M52 704l17.998 28.002c56 -16 106.667 -38.667 152 -68l142 74l16 -30l-126 -66c146 -108.667 219 -249.334 219 -422.001c0 -70 -19.5 -126 -58.5 -168s-91.167 -63 -156.5 -63c-59.333 0 -109.666 20.667 -150.999 62s-62 91.666 -62 150.999
c0 58.667 20.667 109 62 151s91 63 149 63c58.667 0 110.334 -21.333 155.001 -64c-18.667 62 -41.5 112 -68.5 150s-68.5 77.667 -124.5 119l-141 -75l-16 29l126 67c-45.333 28 -90.333 48.667 -135 62zM254.998 379.002c-46.667 0 -86.5 -17.1689 -119.5 -51.502
s-49.5 -76.166 -49.5 -125.499c0 -48.667 16.5 -90.167 49.5 -124.5s72.833 -51.5 119.5 -51.5c50 0 91.833 16.833 125.5 50.5s50.5 75.5 50.5 125.5c0 50.667 -16.833 92.834 -50.5 126.501s-75.5 50.5 -125.5 50.5z" />
    <glyph glyph-name="ntilde" unicode="&#xf1;" horiz-adv-x="440" 
d="M71 408l40 -0.000976562v-64c30.667 48.667 72 73 124 73c24 0 46.167 -5.16699 66.5 -15.5s35.833 -24.166 46.5 -41.499c13.333 -22 20 -56.333 20 -103v-257h-40v257c0 44 -7.5 75.5 -22.5 94.5s-40.167 28.5 -75.5 28.5c-79.333 0 -119 -56 -119 -168v-212h-40v408z
M138 486.999l-25.999 18.999c17.333 38 40.333 57 69 57c14 0 34 -5.66699 60 -17c28 -12 47 -18 57 -18c18 0 32.333 12.333 43 37l26 -20c-6 -17.333 -15.5 -31.166 -28.5 -41.499s-27.5 -15.5 -43.5 -15.5c-8.66699 0 -27.334 5.66699 -56.001 17
c-29.333 12 -50 18 -62 18c-18 0 -31 -12 -39 -36z" />
    <glyph glyph-name="ograve" unicode="&#xf2;" horiz-adv-x="517" 
d="M257 417c60.667 0 111.667 -20.501 153 -61.501s62 -91.833 62 -152.5s-20.667 -111.5 -62 -152.5s-92.333 -61.5 -153 -61.5c-58.667 0 -108.667 20.833 -150 62.5s-62 91.834 -62 150.501c0 59.333 20.667 110 62 152s91.333 63 150 63zM255 379.999
c-46.667 0 -86.5 -17.1689 -119.5 -51.502s-49.5 -76.166 -49.5 -125.499c0 -48.667 16.5 -90.334 49.5 -125.001s72.833 -52 119.5 -52c50 0 91.833 16.833 125.5 50.5s50.5 75.834 50.5 126.501s-16.833 92.834 -50.5 126.501s-75.5 50.5 -125.5 50.5zM151 594.997l44 25
l91 -137l-30 -16z" />
    <glyph glyph-name="oacute" unicode="&#xf3;" horiz-adv-x="517" 
d="M257 417c60.667 0 111.667 -20.501 153 -61.501s62 -91.833 62 -152.5s-20.667 -111.5 -62 -152.5s-92.333 -61.5 -153 -61.5c-58.667 0 -108.667 20.833 -150 62.5s-62 91.834 -62 150.501c0 59.333 20.667 110 62 152s91.333 63 150 63zM255 379.999
c-46.667 0 -86.5 -17.1689 -119.5 -51.502s-49.5 -76.166 -49.5 -125.499c0 -48.667 16.5 -90.334 49.5 -125.001s72.833 -52 119.5 -52c50 0 91.833 16.833 125.5 50.5s50.5 75.834 50.5 126.501s-16.833 92.834 -50.5 126.501s-75.5 50.5 -125.5 50.5zM357 594.997
l-106 -128l-29 16l91 137z" />
    <glyph glyph-name="ocircumflex" unicode="&#xf4;" horiz-adv-x="517" 
d="M257 417c60.667 0 111.667 -20.501 153 -61.501s62 -91.833 62 -152.5s-20.667 -111.5 -62 -152.5s-92.333 -61.5 -153 -61.5c-58.667 0 -108.667 20.833 -150 62.5s-62 91.834 -62 150.501c0 59.333 20.667 110 62 152s91.333 63 150 63zM255 379.999
c-46.667 0 -86.5 -17.1689 -119.5 -51.502s-49.5 -76.166 -49.5 -125.499c0 -48.667 16.5 -90.334 49.5 -125.001s72.833 -52 119.5 -52c50 0 91.833 16.833 125.5 50.5s50.5 75.834 50.5 126.501s-16.833 92.834 -50.5 126.501s-75.5 50.5 -125.5 50.5zM137 491.997l121 94
l122 -94l-33 -25l-89 68l-89 -68z" />
    <glyph glyph-name="otilde" unicode="&#xf5;" horiz-adv-x="517" 
d="M257 417c60.667 0 111.667 -20.501 153 -61.501s62 -91.833 62 -152.5s-20.667 -111.5 -62 -152.5s-92.333 -61.5 -153 -61.5c-58.667 0 -108.667 20.833 -150 62.5s-62 91.834 -62 150.501c0 59.333 20.667 110 62 152s91.333 63 150 63zM255 379.999
c-46.667 0 -86.5 -17.1689 -119.5 -51.502s-49.5 -76.166 -49.5 -125.499c0 -48.667 16.5 -90.334 49.5 -125.001s72.833 -52 119.5 -52c50 0 91.833 16.833 125.5 50.5s50.5 75.834 50.5 126.501s-16.833 92.834 -50.5 126.501s-75.5 50.5 -125.5 50.5zM157 486.997
l-26 18.999c16.667 38 39.667 57 69 57c14 0 34 -5.66699 60 -17c28 -12 47 -18 57 -18c18 0 32.333 12.333 43 37l26 -20c-6 -17.333 -15.5 -31.166 -28.5 -41.499s-27.5 -15.5 -43.5 -15.5c-9.33301 0 -28 5.66699 -56 17c-29.333 12 -50 18 -62 18c-18 0 -31 -12 -39 -36
z" />
    <glyph glyph-name="odieresis" unicode="&#xf6;" horiz-adv-x="517" 
d="M257 417c60.667 0 111.667 -20.501 153 -61.501s62 -91.833 62 -152.5s-20.667 -111.5 -62 -152.5s-92.333 -61.5 -153 -61.5c-58.667 0 -108.667 20.833 -150 62.5s-62 91.834 -62 150.501c0 59.333 20.667 110 62 152s91.333 63 150 63zM255 379.999
c-46.667 0 -86.5 -17.1689 -119.5 -51.502s-49.5 -76.166 -49.5 -125.499c0 -48.667 16.5 -90.334 49.5 -125.001s72.833 -52 119.5 -52c50 0 91.833 16.833 125.5 50.5s50.5 75.834 50.5 126.501s-16.833 92.834 -50.5 126.501s-75.5 50.5 -125.5 50.5zM176 561.997
c10 0 18.5 -3.5 25.5 -10.5s10.5 -15.5 10.5 -25.5c0 -10.667 -3.5 -19.5 -10.5 -26.5s-15.5 -10.5 -25.5 -10.5s-18.667 3.66699 -26 11s-11 16 -11 26s3.5 18.5 10.5 25.5s15.833 10.5 26.5 10.5zM342 561.997c10 0 18.5 -3.5 25.5 -10.5s10.5 -15.5 10.5 -25.5
c0 -10.667 -3.5 -19.5 -10.5 -26.5s-15.5 -10.5 -25.5 -10.5c-10.667 0 -19.5 3.5 -26.5 10.5s-10.5 15.833 -10.5 26.5c0 10 3.5 18.5 10.5 25.5s15.833 10.5 26.5 10.5z" />
    <glyph glyph-name="divide" unicode="&#xf7;" horiz-adv-x="549" 
d="M273 120c16.667 0 31.167 -6 43.5 -18s18.5 -26.667 18.5 -44s-6.16699 -32 -18.5 -44s-26.833 -18 -43.5 -18s-31.167 6 -43.5 18s-18.5 26.667 -18.5 44s6.16699 32 18.5 44s26.833 18 43.5 18zM273 519c16.667 0 31.167 -6.16699 43.5 -18.5s18.5 -26.833 18.5 -43.5
s-6.16699 -31.167 -18.5 -43.5s-26.833 -18.5 -43.5 -18.5s-31.167 6.16699 -43.5 18.5s-18.5 26.833 -18.5 43.5s6.16699 31.167 18.5 43.5s26.833 18.5 43.5 18.5zM10 288h526v-55h-526v55z" />
    <glyph glyph-name="oslash" unicode="&#xf8;" horiz-adv-x="524" 
d="M45 13l55 54c-32 39.333 -48 84.666 -48 135.999c0 59.333 20.667 109.833 62 151.5s91.333 62.5 150 62.5c50 0 95.667 -16 137 -48l54 54l24 -25l-53 -53c35.333 -39.333 53 -86.666 53 -141.999c0 -60.667 -20.667 -111.5 -62 -152.5s-92.333 -61.5 -153 -61.5
c-50 0 -97 18 -141 54l-53 -53zM128 94l242.999 247.999c-33.333 25.333 -69.666 38 -108.999 38c-46.667 0 -86.5 -17.167 -119.5 -51.5s-49.5 -76.166 -49.5 -125.499c0 -40.667 11.667 -77 35 -109zM395.999 318.999l-244 -250c33.333 -28.667 70 -43 110 -43
c50 0 91.833 16.833 125.5 50.5s50.5 75.5 50.5 125.5c0 44.667 -14 83.667 -42 117z" />
    <glyph glyph-name="ugrave" unicode="&#xf9;" horiz-adv-x="436" 
d="M111 408l0.00195312 -243c0 -42 4.33301 -72 13 -90c7.33301 -14.667 19.666 -26.5 36.999 -35.5s36.333 -13.5 57 -13.5c20 0 38.667 4.5 56 13.5s29.666 20.833 36.999 35.5c8.66699 18 13 48 13 90v243h40v-257c0 -51.333 -10 -88.666 -30 -111.999
c-28 -33.333 -66.667 -50 -116 -50c-50 0 -89 16.667 -117 50c-20 23.333 -30 60.666 -30 111.999v257h40zM110.002 595l44 25l91 -137l-30 -16z" />
    <glyph glyph-name="uacute" unicode="&#xfa;" horiz-adv-x="436" 
d="M111 408l0.00195312 -243c0 -42 4.33301 -72 13 -90c7.33301 -14.667 19.666 -26.5 36.999 -35.5s36.333 -13.5 57 -13.5c20 0 38.667 4.5 56 13.5s29.666 20.833 36.999 35.5c8.66699 18 13 48 13 90v243h40v-257c0 -51.333 -10 -88.666 -30 -111.999
c-28 -33.333 -66.667 -50 -116 -50c-50 0 -89 16.667 -117 50c-20 23.333 -30 60.666 -30 111.999v257h40zM329.002 595l-106 -128l-29 16l91 137z" />
    <glyph glyph-name="ucircumflex" unicode="&#xfb;" horiz-adv-x="436" 
d="M111 408l0.00195312 -243c0 -42 4.33301 -72 13 -90c7.33301 -14.667 19.666 -26.5 36.999 -35.5s36.333 -13.5 57 -13.5c20 0 38.667 4.5 56 13.5s29.666 20.833 36.999 35.5c8.66699 18 13 48 13 90v243h40v-257c0 -51.333 -10 -88.666 -30 -111.999
c-28 -33.333 -66.667 -50 -116 -50c-50 0 -89 16.667 -117 50c-20 23.333 -30 60.666 -30 111.999v257h40zM96.002 492l121 94l122 -94l-33 -25l-89 68l-89 -68z" />
    <glyph glyph-name="udieresis" unicode="&#xfc;" horiz-adv-x="436" 
d="M111 408l0.00195312 -243c0 -42 4.33301 -72 13 -90c7.33301 -14.667 19.666 -26.5 36.999 -35.5s36.333 -13.5 57 -13.5c20 0 38.667 4.5 56 13.5s29.666 20.833 36.999 35.5c8.66699 18 13 48 13 90v243h40v-257c0 -51.333 -10 -88.666 -30 -111.999
c-28 -33.333 -66.667 -50 -116 -50c-50 0 -89 16.667 -117 50c-20 23.333 -30 60.666 -30 111.999v257h40zM135.002 562c10 0 18.5 -3.5 25.5 -10.5s10.5 -15.5 10.5 -25.5c0 -10.667 -3.5 -19.5 -10.5 -26.5s-15.5 -10.5 -25.5 -10.5s-18.667 3.66699 -26 11s-11 16 -11 26
s3.5 18.5 10.5 25.5s15.833 10.5 26.5 10.5zM301.002 562c10 0 18.5 -3.5 25.5 -10.5s10.5 -15.5 10.5 -25.5c0 -10.667 -3.5 -19.5 -10.5 -26.5s-15.5 -10.5 -25.5 -10.5c-10.667 0 -19.5 3.5 -26.5 10.5s-10.5 15.833 -10.5 26.5c0 10 3.5 18.5 10.5 25.5
s15.833 10.5 26.5 10.5z" />
    <glyph glyph-name="yacute" unicode="&#xfd;" horiz-adv-x="428" 
d="M201 -7l-193 415h47l167 -362l152 362h46l-274 -647h-45zM325 595l-105 -128l-29 16l91 137z" />
    <glyph glyph-name="thorn" unicode="&#xfe;" horiz-adv-x="515" 
d="M111 -239l-39.999 -0.000976562v968h40v-394c37.333 54.667 89.666 82 156.999 82c58.667 0 107 -20.167 145 -60.5s57 -92.166 57 -155.499c0 -62.667 -18.667 -113.667 -56 -153s-85.333 -59 -144 -59c-66 0 -119 27.333 -159 82v-310zM269.001 379.999
c-48 0 -86.833 -17 -116.5 -51s-44.5 -78.333 -44.5 -133c0 -49.333 15.333 -90 46 -122s69.667 -48 117 -48c44.667 0 82.167 16.833 112.5 50.5s45.5 75.167 45.5 124.5c0 50.667 -15.333 93.167 -46 127.5s-68.667 51.5 -114 51.5z" />
    <glyph glyph-name="ydieresis" unicode="&#xff;" horiz-adv-x="428" 
d="M201 -7l-193 415h47l167 -362l152 362h46l-274 -647h-45zM138 562c10 0 18.5 -3.5 25.5 -10.5s10.5 -15.5 10.5 -25.5c0 -10.667 -3.5 -19.5 -10.5 -26.5s-15.5 -10.5 -25.5 -10.5s-18.667 3.66699 -26 11s-11 16 -11 26s3.5 18.5 10.5 25.5s15.833 10.5 26.5 10.5z
M304 562c10 0 18.5 -3.5 25.5 -10.5s10.5 -15.5 10.5 -25.5c0 -10.667 -3.5 -19.5 -10.5 -26.5s-15.5 -10.5 -25.5 -10.5c-10.667 0 -19.5 3.5 -26.5 10.5s-10.5 15.833 -10.5 26.5c0 10 3.5 18.5 10.5 25.5s15.833 10.5 26.5 10.5z" />
    <glyph glyph-name="dotlessi" unicode="&#x131;" horiz-adv-x="183" 
d="M111 408v-408h-40v408h40z" />
    <glyph glyph-name="Lslash" unicode="&#x141;" horiz-adv-x="315" 
d="M133 386l113 83v-50l-113 -84v-295h169v-40h-212v314l-71 -53v50l71 53v303h43v-281z" />
    <glyph glyph-name="lslash" unicode="&#x142;" horiz-adv-x="209" 
d="M132 387l66 51v-47l-66 -51v-340h-40v319l-67 -51v48l67 51v362h40v-342z" />
    <glyph glyph-name="OE" unicode="&#x152;" horiz-adv-x="1071" 
d="M1018 627l-275.999 0.000976562v-242h269v-40h-269v-305h276v-40h-319v172c-30 -57.333 -71.667 -102.166 -125 -134.499s-112 -48.5 -176 -48.5c-93.333 0 -174.166 34.167 -242.499 102.5s-102.5 149.166 -102.5 242.499s34.167 173.666 102.5 240.999
s150.166 101 245.499 101c62.667 0 120.667 -16.333 174 -49s94.666 -77 123.999 -133v173h319v-40zM401.001 635.001c-82 0 -153.001 -29.834 -213.001 -89.501s-90 -130.167 -90 -211.5c0 -82.667 29.667 -154 89 -214s130 -90 212 -90c81.333 0 151.5 29.833 210.5 89.5
s88.5 130.834 88.5 213.501s-29.167 153.667 -87.5 213s-128.166 89 -209.499 89z" />
    <glyph glyph-name="oe" unicode="&#x153;" horiz-adv-x="868" 
d="M824 201l-349.999 0.000976562c1.33301 -52 16.666 -94.167 45.999 -126.5s66.666 -48.5 111.999 -48.5c62.667 0 110.667 31.667 144 95l34 -20c-40.667 -74.667 -99.667 -112 -177 -112c-86.667 0 -147.334 40.333 -182.001 121c-43.333 -80.667 -107 -121 -191 -121
c-60 0 -110.833 20.5 -152.5 61.5s-62.5 91.5 -62.5 151.5s21 110.833 63 152.5s93.333 62.5 154 62.5c41.333 0 78.333 -10.333 111 -31s58.667 -50.334 78 -89.001c15.333 38 38.333 67.5 69 88.5s66.667 31.5 108 31.5c58.667 0 105.834 -19.5 141.501 -58.5
s53.834 -91.5 54.501 -157.5zM477.001 239.001l303 0.00195312c-8.66699 45.333 -26.167 80.166 -52.5 104.499s-60.166 36.5 -101.499 36.5c-39.333 0 -71.833 -12.333 -97.5 -37s-42.834 -59.334 -51.501 -104.001zM261.001 380.003
c-49.333 0 -90.835 -17.167 -124.502 -51.5s-50.5 -76.833 -50.5 -127.5c0 -48 16.833 -89.167 50.5 -123.5s73.834 -51.5 120.501 -51.5c48 0 89.167 17 123.5 51s51.5 74.667 51.5 122c0 50 -16.667 92.667 -50 128s-73.666 53 -120.999 53z" />
    <glyph glyph-name="Scaron" unicode="&#x160;" horiz-adv-x="512" 
d="M425 581l-32.0029 -26.002c-19.333 29.333 -38.833 50 -58.5 62s-43.834 18 -72.501 18c-35.333 0 -65 -12.167 -89 -36.5s-36 -54.166 -36 -89.499c0 -26.667 8.33301 -49 25 -67s47.667 -38 93 -60c64.667 -30.667 109 -53.667 133 -69c46.667 -30.667 70 -74 70 -130
c0 -52.667 -20.5 -98.167 -61.5 -136.5s-89.833 -57.5 -146.5 -57.5c-92 0 -157.667 47.667 -197 143l37 18c20.667 -43.333 43.334 -74.166 68.001 -92.499s55.334 -27.5 92.001 -27.5c44.667 0 83 15.333 115 46s48 67.667 48 111c0 42.667 -21.667 76.334 -65 101.001
l-67 35l-19 9l-19 10l-19 9c-51.333 25.333 -86.166 49.166 -104.499 71.499s-27.5 52.5 -27.5 90.5c0 46.667 16.333 85.5 49 116.5s73.334 46.5 122.001 46.5c71.333 0 125.333 -31.667 162 -95zM386.997 809.998l-125 -97l-125 97l37 28l88 -68l90 68z" />
    <glyph glyph-name="scaron" unicode="&#x161;" horiz-adv-x="342" 
d="M287 351l-33.999 -18c-16.667 31.333 -40.667 47 -72 47c-18 0 -34 -6.5 -48 -19.5s-21 -27.833 -21 -44.5s5.5 -30.167 16.5 -40.5s32.167 -21.5 63.5 -33.5c38 -14 64.333 -26.333 79 -37c26.667 -20 40 -49.667 40 -89c0 -36.667 -12.5 -67 -37.5 -91
s-56.5 -36 -94.5 -36c-72 0 -119 36 -141 108l39 12c18.667 -55.333 52.667 -83 102 -83c26 0 47.667 8.83301 65 26.5s26 39.5 26 65.5c0 20 -5.66699 36 -17 48s-32 23.333 -62 34c-44.667 16 -75.834 32.333 -93.501 49s-26.5 37.667 -26.5 63c0 30 10.833 55 32.5 75
s48.167 30 79.5 30c45.333 0 80 -22 104 -66zM306.001 559l-121 -94l-122 94l33 26l89 -68l90 68z" />
    <glyph glyph-name="Ydieresis" unicode="&#x178;" horiz-adv-x="514" 
d="M231 285l-218 382h50l190 -335l195 335h51l-225 -382v-285h-43v285zM164 818c10.667 0 19.667 -3.66699 27 -11s11 -16.333 11 -27s-3.66699 -19.834 -11 -27.501s-16.333 -11.5 -27 -11.5s-19.834 3.83301 -27.501 11.5s-11.5 16.834 -11.5 27.501
s3.83301 19.667 11.5 27s16.834 11 27.501 11zM350 818c10.667 0 19.667 -3.66699 27 -11s11 -16.333 11 -27s-3.66699 -19.834 -11 -27.501s-16.333 -11.5 -27 -11.5s-19.834 3.83301 -27.501 11.5s-11.5 16.834 -11.5 27.501s3.83301 19.667 11.5 27s16.834 11 27.501 11z
" />
    <glyph glyph-name="Zcaron" unicode="&#x17d;" horiz-adv-x="555" 
d="M111 40h396v-40h-470l407 627h-368v40h443zM416 810l-125 -97l-125 97l37 28l88 -68l90 68z" />
    <glyph glyph-name="zcaron" unicode="&#x17e;" horiz-adv-x="453" 
d="M104 37h329v-37h-415l333 371h-280v37h364zM361 559l-121 -94l-122 94l33 26l89 -68l90 68z" />
    <glyph glyph-name="florin" unicode="&#x192;" 
d="M294 429h102.999l-8 -38h-102l-65 -348c-11.333 -60 -22.666 -99.333 -33.999 -118c-18.667 -32.667 -47.667 -49 -87 -49c-20.667 0 -44.334 5 -71.001 15l8 37c26.667 -9.33301 46.334 -14 59.001 -14c23.333 0 40.333 7 51 21s19.667 41 27 81l72 375h-62l9 38h60
l37 200c8 40 20.333 68.5 37 85.5s40.667 25.5 72 25.5c16.667 0 35 -4.33301 55 -13l-7 -37c-18 7.33301 -34.667 11 -50 11c-22 0 -37.5 -6.33301 -46.5 -19s-17.5 -40 -25.5 -82z" />
    <glyph glyph-name="circumflex" unicode="&#x2c6;" horiz-adv-x="500" 
d="M128 492l121 94l122 -94l-33 -25l-89 68l-89 -68z" />
    <glyph glyph-name="caron" unicode="&#x2c7;" horiz-adv-x="500" 
d="M371 559l-121 -94l-122 94l33 26l89 -68l90 68z" />
    <glyph glyph-name="breve" unicode="&#x2d8;" horiz-adv-x="500" 
d="M125 573h38c13.333 -36.667 42.333 -55 87 -55s73.667 18.333 87 55h38c-4.66699 -28.667 -18.167 -51.5 -40.5 -68.5s-50.5 -25.5 -84.5 -25.5s-62.167 8.5 -84.5 25.5s-35.833 39.833 -40.5 68.5z" />
    <glyph glyph-name="dotaccent" unicode="&#x2d9;" horiz-adv-x="500" 
d="M250 566c10.667 0 19.834 -3.66895 27.501 -11.002s11.5 -16.666 11.5 -27.999c0 -10.667 -3.83301 -19.667 -11.5 -27s-16.834 -11 -27.501 -11s-19.667 3.66699 -27 11s-11 16.333 -11 27s3.66699 19.834 11 27.501s16.333 11.5 27 11.5z" />
    <glyph glyph-name="ring" unicode="&#x2da;" horiz-adv-x="500" 
d="M250 626c21.333 0 39.333 -7.33301 54 -22s22 -32.667 22 -54s-7.33301 -39.5 -22 -54.5s-32.667 -22.5 -54 -22.5s-39.5 7.5 -54.5 22.5s-22.5 33.167 -22.5 54.5s7.5 39.333 22.5 54s33.167 22 54.5 22zM250 590c-11.333 0 -21.166 -4 -29.499 -12
s-12.5 -17.667 -12.5 -29s4.16699 -21 12.5 -29s18.166 -12 29.499 -12s21 4 29 12s12 17.667 12 29s-4 21 -12 29s-17.667 12 -29 12z" />
    <glyph glyph-name="ogonek" unicode="&#x2db;" horiz-adv-x="500" 
d="M275 0l40 -0.00195312c-45.333 -37.333 -68 -69.666 -68 -96.999c0 -14.667 5.5 -26.5 16.5 -35.5s25.5 -13.5 43.5 -13.5c10.667 0 28 3 52 9l-10 -36c-18 -5.33301 -33.667 -8 -47 -8c-26 0 -48 8 -66 24s-27 35.667 -27 59c0 34.667 22 67.334 66 98.001z" />
    <glyph glyph-name="tilde" unicode="&#x2dc;" horiz-adv-x="500" 
d="M149 487l-25.999 18.999c16.667 38 39.667 57 69 57c14 0 34 -5.66699 60 -17c28 -12 47 -18 57 -18c18 0 32.333 12.333 43 37l26 -20c-6 -17.333 -15.5 -31.166 -28.5 -41.499s-27.5 -15.5 -43.5 -15.5c-9.33301 0 -28 5.66699 -56 17
c-28.667 12 -49.334 18 -62.001 18c-18 0 -31 -12 -39 -36z" />
    <glyph glyph-name="hungarumlaut" unicode="&#x2dd;" horiz-adv-x="500" 
d="M291 595l-98 -128l-28 16l84 137zM402 595l-99 -128l-27 16l84 137z" />
    <glyph glyph-name="Delta" unicode="&#x394;" horiz-adv-x="612" 
d="M6 0l321 688l281 -688h-602zM77 51h402l-189 458z" />
    <glyph glyph-name="Omega" unicode="&#x3a9;" horiz-adv-x="768" 
d="M326 0h-292v153h24c6.66699 -42 29.667 -63 69 -63h146l-3 38c-64.667 22.667 -114.5 56.167 -149.5 100.5s-52.5 95.5 -52.5 153.5c0 82.667 31.333 154 94 214s137 90 223 90s160.333 -30 223 -90s94 -131.333 94 -214c0 -58 -17.5 -109.167 -52.5 -153.5
s-84.833 -77.833 -149.5 -100.5l-3 -38h146c39.333 0 62.333 21 69 63h24v-153h-292l18 155c38.667 22 69.667 53.5 93 94.5s35 85.167 35 132.5c0 72.667 -19.833 134.167 -59.5 184.5s-88.167 75.5 -145.5 75.5s-105.833 -25.167 -145.5 -75.5
s-59.5 -111.833 -59.5 -184.5c0 -47.333 11.667 -91.5 35 -132.5s54.333 -72.5 93 -94.5z" />
    <glyph glyph-name="mu" unicode="&#x3bc;" horiz-adv-x="576" 
d="M442 500l0.00292969 -368.996c0 -26.667 4.5 -48.334 13.5 -65.001s20.833 -25 35.5 -25c12 0 22.833 6.66699 32.5 20s15.167 29.333 16.5 48l27 -1c-14.667 -80.667 -54.667 -121 -120 -121c-24.667 0 -44.334 7.16699 -59.001 21.5s-26 38.166 -34 71.499
c-53.333 -62 -105 -93 -155 -93c-16.667 0 -31.834 3.16699 -45.501 9.5s-31.167 18.5 -52.5 36.5c0 -30 4 -58.667 12 -86c12.667 -44 19 -74.667 19 -92c0 -22.667 -4.5 -40.667 -13.5 -54s-21.167 -20 -36.5 -20c-14 0 -25.667 6.66699 -35 20s-14 29.666 -14 48.999
c0 20 5.66699 51.333 17 94c8 30 12 55.333 12 76v480h88v-331c0 -34.667 8 -61.834 24 -81.501s38.333 -29.5 67 -29.5c41.333 0 78.666 24.333 111.999 73v369h89z" />
    <glyph glyph-name="pi" unicode="&#x3c0;" horiz-adv-x="549" 
d="M30 348l-20.001 -0.00195312c14.667 52 35 91 61 117c14.667 14 28.667 23.333 42 28s33.333 7 60 7h350v-89h-126c-8 -62 -12 -135.667 -12 -221c0 -70 21.333 -105 64 -105c32.667 0 51.667 24.333 57 73h24c-2.66699 -44 -10.334 -77.667 -23.001 -101
c-24.667 -46.667 -56.667 -70 -96 -70c-31.333 0 -55.666 16 -72.999 48s-26 77.333 -26 136c0 68 7 148 21 240h-109l-12 -129c-2 -21.333 -5 -47.666 -9 -78.999c-8.66699 -74.667 -14.667 -119 -18 -133c-13.333 -55.333 -38 -83 -74 -83
c-15.333 0 -28.166 5.33301 -38.499 16s-15.5 24 -15.5 40c0 18.667 13.333 40.334 40 65.001c31.333 29.333 48.333 56.333 51 81l26 222h-46c-24 0 -42 -4 -54 -12s-26.667 -25 -44 -51z" />
    <glyph glyph-name="endash" unicode="&#x2013;" 
d="M125 227h297v-40h-297v40z" />
    <glyph glyph-name="emdash" unicode="&#x2014;" horiz-adv-x="505" 
d="M0 227h505v-40h-505v40z" />
    <glyph glyph-name="quoteleft" unicode="&#x2018;" horiz-adv-x="227" 
d="M103 493l-40 12l74 200l26 -10z" />
    <glyph glyph-name="quoteright" unicode="&#x2019;" horiz-adv-x="227" 
d="M123 705l40 -12l-74 -200l-26 9z" />
    <glyph glyph-name="quotesinglbase" unicode="&#x201a;" horiz-adv-x="227" 
d="M123 65l40 -12l-74 -200l-26 10z" />
    <glyph glyph-name="quotedblleft" unicode="&#x201c;" horiz-adv-x="343" 
d="M219 493l-40 12l74 200l26 -10zM103 493l-40 12l74 200l26 -10z" />
    <glyph glyph-name="quotedblright" unicode="&#x201d;" horiz-adv-x="343" 
d="M123 705l40 -12l-74 -200l-26 9zM239 705l40 -12l-74 -200l-26 9z" />
    <glyph glyph-name="quotedblbase" unicode="&#x201e;" horiz-adv-x="343" 
d="M123 65l40 -12l-74 -200l-26 10zM239 65l40 -12l-74 -200l-26 10z" />
    <glyph glyph-name="dagger" unicode="&#x2020;" 
d="M252 729h43v-176h159v-40h-159v-673h-43v673h-159v40h159v176z" />
    <glyph glyph-name="daggerdbl" unicode="&#x2021;" 
d="M252 729h43v-176h159v-40h-159v-378h159v-40h-159v-255h-43v255h-159v40h159v378h-159v40h159v176z" />
    <glyph glyph-name="bullet" unicode="&#x2022;" horiz-adv-x="667" 
d="M336 477c37.333 0 69.5 -13.5 96.5 -40.5s40.5 -59.5 40.5 -97.5c0 -38.667 -13.5 -71.5 -40.5 -98.5s-59.167 -40.5 -96.5 -40.5c-38.667 0 -71.667 13.5 -99 40.5s-41 59.833 -41 98.5c0 38 13.667 70.5 41 97.5s60.333 40.5 99 40.5z" />
    <glyph glyph-name="ellipsis" unicode="&#x2026;" horiz-adv-x="641" 
d="M107 66c10 0 18.5 -3.5 25.5 -10.5s10.5 -15.5 10.5 -25.5c0 -10.667 -3.5 -19.5 -10.5 -26.5s-15.5 -10.5 -25.5 -10.5s-18.667 3.66699 -26 11s-11 16 -11 26s3.5 18.5 10.5 25.5s15.833 10.5 26.5 10.5zM320 66c10 0 18.5 -3.5 25.5 -10.5s10.5 -15.5 10.5 -25.5
c0 -10.667 -3.5 -19.5 -10.5 -26.5s-15.5 -10.5 -25.5 -10.5s-18.667 3.66699 -26 11s-11 16 -11 26s3.5 18.5 10.5 25.5s15.833 10.5 26.5 10.5zM534 66c10 0 18.5 -3.5 25.5 -10.5s10.5 -15.5 10.5 -25.5c0 -10.667 -3.5 -19.5 -10.5 -26.5s-15.5 -10.5 -25.5 -10.5
s-18.667 3.66699 -26 11s-11 16 -11 26s3.5 18.5 10.5 25.5s15.833 10.5 26.5 10.5z" />
    <glyph glyph-name="perthousand" unicode="&#x2030;" horiz-adv-x="931" 
d="M168 673c38 0 69.832 -12.667 95.499 -38s38.5 -56.666 38.5 -93.999c0 -36.667 -13 -67.5 -39 -92.5s-57.667 -37.5 -95 -37.5c-38 0 -70 12.5 -96 37.5s-39 55.833 -39 92.5c0 37.333 12.833 68.666 38.5 93.999s57.834 38 96.501 38zM166.999 637
c-26 0 -48.167 -9.16699 -66.5 -27.5s-27.5 -40.5 -27.5 -66.5c0 -26.667 9.16699 -49.167 27.5 -67.5s40.833 -27.5 67.5 -27.5c26 0 48.167 9.16699 66.5 27.5s27.5 40.833 27.5 67.5c0 26 -9.16699 48.167 -27.5 66.5s-40.833 27.5 -67.5 27.5zM483.999 682l29 -15
l-396 -682l-28 16zM436.999 256c38 0 69.832 -12.667 95.499 -38s38.5 -56.666 38.5 -93.999c0 -36.667 -13 -67.5 -39 -92.5s-57.667 -37.5 -95 -37.5c-38 0 -70 12.5 -96 37.5s-39 55.833 -39 92.5c0 37.333 12.833 68.666 38.5 93.999s57.834 38 96.501 38zM435.998 219
c-26.667 0 -49.167 -9.16699 -67.5 -27.5s-27.5 -40.5 -27.5 -66.5c0 -26.667 9.33301 -49.167 28 -67.5s41 -27.5 67 -27.5c26.667 0 49.167 9.16699 67.5 27.5s27.5 40.833 27.5 67.5c0 26 -9.16699 48.167 -27.5 66.5s-40.833 27.5 -67.5 27.5zM763.998 256
c38 0 69.832 -12.667 95.499 -38s38.5 -56.666 38.5 -93.999c0 -36.667 -13 -67.5 -39 -92.5s-57.667 -37.5 -95 -37.5c-38 0 -70 12.5 -96 37.5s-39 55.833 -39 92.5c0 37.333 12.833 68.666 38.5 93.999s57.834 38 96.501 38zM763.997 219
c-26.667 0 -49.167 -9.16699 -67.5 -27.5s-27.5 -40.5 -27.5 -66.5c0 -26.667 9.33301 -49.167 28 -67.5s41 -27.5 67 -27.5c26.667 0 49.167 9.16699 67.5 27.5s27.5 40.833 27.5 67.5c0 26 -9.16699 48.167 -27.5 66.5s-40.833 27.5 -67.5 27.5z" />
    <glyph glyph-name="guilsinglleft" unicode="&#x2039;" horiz-adv-x="241" 
d="M81 207l106 -126l-25 -24l-129 150l129 149l25 -24z" />
    <glyph glyph-name="guilsinglright" unicode="&#x203a;" horiz-adv-x="241" 
d="M160 207l-107 125l25 24l129 -149l-129 -150l-25 24z" />
    <glyph glyph-name="fraction" unicode="&#x2044;" horiz-adv-x="130" 
d="M248 682l29 -15l-395 -682l-29 16z" />
    <glyph glyph-name="trademark" unicode="&#x2122;" horiz-adv-x="721" 
d="M132 632v-345h-37v345h-94v35h227v-35h-96zM267 287l45 411l162 -348l164 347l45 -410h-37l-31 277l-141 -299l-140 299l-30 -277h-37z" />
    <glyph glyph-name="partialdiff" unicode="&#x2202;" horiz-adv-x="494" 
d="M107 674l-41.001 50.999c50 18.667 93 28 129 28c76.667 0 140.334 -33.333 191.001 -100s76 -150.334 76 -251.001c0 -60.667 -8 -121.667 -24 -183s-36.333 -108.666 -61 -141.999c-42 -58 -96.333 -87 -163 -87c-53.333 0 -98 18.833 -134 56.5
s-54 84.834 -54 141.501c0 58.667 19.5 110.667 58.5 156s83.833 68 134.5 68c26.667 0 50.667 -4.66699 72 -14s48.333 -26.666 81 -51.999c4.66699 38.667 7 73.667 7 105c0 81.333 -14.167 144.166 -42.5 188.499s-68.166 66.5 -119.499 66.5
c-30.667 0 -67.334 -10.667 -110.001 -32zM365.999 311.999c-20.667 20.667 -38.502 34.999 -53.502 42.999s-32.167 12 -51.5 12c-40.667 0 -75.5 -20.5 -104.5 -61.5s-43.5 -89.833 -43.5 -146.5c0 -43.333 7.83301 -77.166 23.5 -101.499s37.834 -36.5 66.501 -36.5
c20.667 0 41.167 7.83301 61.5 23.5s36.833 36.5 49.5 62.5c16.667 34 28.334 69 35.001 105c13.333 62.667 19 96 17 100z" />
    <glyph glyph-name="product" unicode="&#x220f;" horiz-adv-x="823" 
d="M25 -124v26h3c34 0 58.667 10.333 74 31c9.33301 14.667 14 43 14 85v591c0 42 -4.66699 70.333 -14 85c-15.333 20.667 -40 31 -74 31h-3v26h778v-26h-3c-34 0 -58.667 -10.333 -74 -31c-9.33301 -14.667 -14 -43 -14 -85v-591c0 -42 4.66699 -70.333 14 -85
c15.333 -20.667 40 -31 74 -31h3v-26h-290v26h3c34 0 58.667 10.333 74 31c9.33301 14.667 14 43 14 85v576c0 52.667 -6 84.667 -18 96c-10.667 9.33301 -30.334 15 -59.001 17c-6 0.666992 -22 1 -48 1h-67c-77.333 0 -123.666 -1.33301 -138.999 -4
c-20.667 -3.33301 -34 -12 -40 -26s-9 -42 -9 -84v-576c0 -42 4.66699 -70.333 14 -85c15.333 -20.667 40 -31 74 -31h3v-26h-290z" />
    <glyph glyph-name="summation" unicode="&#x2211;" horiz-adv-x="713" 
d="M176 711l188 -370l-201 -352h328c58 0 98.167 6.16699 120.5 18.5s41.5 38.833 57.5 79.5h26l-54 -210h-627l242 408l-233 467h599l10 -165h-26c-8.66699 50.667 -23.5 84 -44.5 100s-60.167 24 -117.5 24h-268z" />
    <glyph glyph-name="minus" unicode="&#x2212;" 
d="M31 320v40h484v-40h-484z" />
    <glyph glyph-name="radical" unicode="&#x221a;" horiz-adv-x="549" 
d="M363 -35l-242 496l-95 -47l-16 35l146 71l195 -394l127 787l37 -5z" />
    <glyph glyph-name="infinity" unicode="&#x221e;" horiz-adv-x="713" 
d="M357 303c56 74 119.001 111.001 189.001 111.001c41.333 0 75.5 -13.667 102.5 -41s40.5 -62.333 40.5 -105c0 -46 -12.833 -83 -38.5 -111s-59.834 -42 -102.501 -42c-65.333 0 -129 37.333 -191 112c-16 -19.333 -26 -31 -30 -35c-46 -51.333 -98.667 -77 -158 -77
c-43.333 0 -78.166 13.667 -104.499 41s-39.5 63.333 -39.5 108c0 43.333 13.667 79.166 41 107.499s62 42.5 104 42.5c65.333 0 127.666 -37 186.999 -111zM391.001 264.001c36 -38 64.6689 -63.667 86.002 -77s45.666 -20 72.999 -20c26.667 0 48.167 9 64.5 27
s24.5 42 24.5 72c0 28 -8.83301 51 -26.5 69s-40.5 27 -68.5 27c-34 0 -68.333 -14.667 -103 -44c-16.667 -12.667 -31.334 -28 -44.001 -46zM324.003 266.001c-32.667 35.333 -60.499 60.167 -83.499 74.5s-47.167 21.5 -72.5 21.5
c-28.667 0 -51.334 -8.83301 -68.001 -26.5s-25 -41.5 -25 -71.5c0 -28.667 8.16699 -52 24.5 -70s37.5 -27 63.5 -27c43.333 0 88 22.667 134 68c6.66699 6.66699 14 14.667 22 24z" />
    <glyph glyph-name="integral" unicode="&#x222b;" horiz-adv-x="274" 
d="M180 576l-0.00195312 -343.997c0 -114 -8.33301 -201 -25 -261c-7.33301 -24.667 -19 -43.834 -35 -57.501s-35 -20.5 -57 -20.5c-18.667 0 -33.5 4 -44.5 12s-16.5 18.667 -16.5 32c0 9.33301 3.33301 17.166 10 23.499s15.334 9.5 26.001 9.5c12 0 22 -7.33301 30 -22
c5.33301 -12 12.333 -18 21 -18c20.667 0 31 20 31 60c0 20.667 -1 45 -3 73c-2.66699 55.333 -4 111.666 -4 168.999v345c0 114 8.33301 201 25 261c6.66699 24.667 18.334 43.834 35.001 57.501s35.667 20.5 57 20.5c19.333 0 34.333 -4 45 -12s16 -19.333 16 -34
c0 -8.66699 -3.5 -16 -10.5 -22s-15.5 -9 -25.5 -9c-8 0 -14.5 2.16699 -19.5 6.5s-11.833 13.166 -20.5 26.499c-2 4 -6.33301 6 -13 6c-19.333 0 -29 -21.667 -29 -65c0 -16.667 1 -39 3 -67c2.66699 -45.333 4 -102 4 -170z" />
    <glyph glyph-name="approxequal" unicode="&#x2248;" horiz-adv-x="549" 
d="M489 251l37.998 -33.999c-30.667 -56.667 -77.667 -85 -141 -85c-22 0 -44 3.33301 -66 10l-16 5l-81 25c-28 8 -49 12 -63 12c-20 0 -36.167 -3.83301 -48.5 -11.5s-30.5 -24.834 -54.5 -51.501l-43 34c39.333 56 88 84 146 84c24.667 0 66.334 -9.33301 125.001 -28
c52.667 -16 86.334 -24 101.001 -24c18.667 0 35 4.33301 49 13s32 25.667 54 51zM488.998 408.001l37.9961 -32.999c-30 -57.333 -77 -86 -141 -86c-22 0 -44 3.33301 -66 10c-17.333 5.33301 -30 9.33301 -38 12l-21.5 7c-6.33301 2 -18.833 5.66699 -37.5 11
c-28 8 -49 12 -63 12c-20 0 -36.167 -3.83301 -48.5 -11.5s-30.5 -24.834 -54.5 -51.501l-43 34c39.333 56 88 84 146 84c24.667 0 66.334 -9.33301 125.001 -28c52.667 -16 86.334 -24 101.001 -24c18.667 0 34.834 4.33301 48.501 13s31.834 25.667 54.501 51z" />
    <glyph glyph-name="notequal" unicode="&#x2260;" horiz-adv-x="549" 
d="M187 141h-172v55h199l70 139h-269v55h297l80 159l47 -24l-68 -135h169v-55h-197l-70 -139h267v-55h-295l-84 -166l-46 24z" />
    <glyph glyph-name="lessequal" unicode="&#x2264;" horiz-adv-x="549" 
d="M526 55v-55h-497v55h497zM526 639v-62l-418 -199l418 -199v-62l-497 233v55z" />
    <glyph glyph-name="greaterequal" unicode="&#x2265;" horiz-adv-x="549" 
d="M526 55v-55h-497v55h497zM29 639l497 -234v-55l-497 -233v62l418 199l-418 199v62z" />
    <glyph glyph-name="lozenge" unicode="&#x25ca;" horiz-adv-x="494" 
d="M209 0l-191 377l196 363h63l189 -366l-197 -374h-60zM240 58l162 316l-157 309l-164 -306z" />
    <glyph glyph-name="uniFB01" unicode="&#xfb01;" horiz-adv-x="396" 
d="M111 371l-0.000976562 -371h-40v371h-45v37h45v194c0 92.667 35 139 105 139c12.667 0 25.334 -2 38.001 -6v-37c-15.333 3.33301 -26.333 5 -33 5c-24.667 0 -42.5 -8.66699 -53.5 -26s-16.5 -45 -16.5 -83v-186h103v-37h-103zM323.999 408v-408h-40v408h40z
M304.999 580c10 0 18.5 -3.5 25.5 -10.5s10.5 -15.5 10.5 -25.5c0 -10.667 -3.5 -19.5 -10.5 -26.5s-15.5 -10.5 -25.5 -10.5c-10.667 0 -19.5 3.5 -26.5 10.5s-10.5 15.833 -10.5 26.5c0 10 3.5 18.5 10.5 25.5s15.833 10.5 26.5 10.5z" />
    <glyph glyph-name="uniFB02" unicode="&#xfb02;" horiz-adv-x="396" 
d="M111 371l-0.000976562 -371h-40v371h-45v37h45v194c0 92.667 35 139 105 139c12.667 0 25.334 -2 38.001 -6v-37c-15.333 3.33301 -26.333 5 -33 5c-24.667 0 -42.5 -8.66699 -53.5 -26s-16.5 -45 -16.5 -83v-186h103v-37h-103zM323.999 729v-729h-40v729h40z" />
    <glyph glyph-name=".null" horiz-adv-x="0" 
 />
    <glyph glyph-name="nonmarkingreturn" horiz-adv-x="333" 
 />
    <glyph glyph-name="apple" horiz-adv-x="790" 
d="M570 698v-11.002c0 -43.333 -18.333 -81.666 -55 -114.999s-78.667 -49.666 -126 -48.999c1.33301 48.667 18 88.5 50 119.5s75.667 49.5 131 55.5zM714 460.998c-29.333 -22.667 -50.167 -44.667 -62.5 -66s-18.5 -46.333 -18.5 -75c0 -33.333 8.83301 -63.333 26.5 -90
s42.167 -46.667 73.5 -60c-29.333 -61.333 -61.666 -109.5 -96.999 -144.5s-69 -52.5 -101 -52.5c-18.667 0 -40.334 5.66699 -65.001 17c-18 8 -40 12 -66 12c-20.667 0 -39.334 -4 -56.001 -12c-27.333 -11.333 -49.666 -17 -66.999 -17
c-33.333 0 -67.666 17.333 -102.999 52s-64.5 78.667 -87.5 132s-34.5 105 -34.5 155c0 60.667 20.167 112.667 60.5 156s89.166 65 146.499 65c24 0 54 -6.66699 90 -20c22.667 -8 39.667 -12 51 -12c10 0 23.667 3.33301 41 10c39.333 14.667 70 22 92 22
c74.667 0 133.667 -24 177 -72z" />
  </font>
</defs>
</svg>
